<?xml version="1.0" encoding="UTF-8"?>
<!DOCTYPE svg PUBLIC "-//W3C//DTD SVG 1.1//EN" "http://www.w3.org/Graphics/SVG/1.1/DTD/svg11.dtd">
<!-- Creator: CorelDRAW 2018 (64-Bit) -->
<svg xmlns="http://www.w3.org/2000/svg" xml:space="preserve" width="210mm" height="297mm" version="1.1" style="shape-rendering:geometricPrecision; text-rendering:geometricPrecision; image-rendering:optimizeQuality; fill-rule:evenodd; clip-rule:evenodd"
viewBox="0 0 21000 29700"
 xmlns:xlink="http://www.w3.org/1999/xlink">
 <defs>
  <style type="text/css">
   <![CDATA[
    .fil0 {fill:#002869;fill-rule:nonzero}
   ]]>
  </style>
 </defs>
 <g id="Слой_x0020_1">
  <metadata id="CorelCorpID_0Corel-Layer"/>
  <g id="_2377806529840">
   <g>
    <path class="fil0" d="M10607.31 14734.35l-284.56 43.42 0 -0.01 -5.63 -44.34 -3.34 -44.2 -1.1 -43.94 1.11 -43.6 3.26 -43.18 5.39 -42.68 7.43 -42.14 9.48 -41.52 11.43 -40.82 13.37 -40.06 15.24 -39.24 17.07 -38.35 18.86 -37.43 20.58 -36.39 22.29 -35.36 23.93 -34.22 25.52 -33.04 27.11 -31.82 28.63 -30.52 30.09 -29.14 31.53 -27.73 32.9 -26.24 34.25 -24.69 35.56 -23.1 36.81 -21.41 38 -19.67 39.14 -17.85 40.25 -16 41.29 -14.05 42.25 -12.05 43.18 -9.99 44.01 -7.85 43.42 284.56 -29.71 5.31 -29 6.71 -28.31 8.07 -27.59 9.39 -26.87 10.68 -26.14 11.93 -25.36 13.13 -24.57 14.29 -23.74 15.42 -22.91 16.53 -22.04 17.56 -21.11 18.57 -20.17 19.54 -19.19 20.46 -18.17 21.34 -17.14 22.18 -16.07 22.98 -14.95 23.72 -13.82 24.43 -12.64 25.07 -11.43 25.69 -10.2 26.26 -8.93 26.78 -7.65 27.28 -6.32 27.7 -4.97 28.12 -3.59 28.5 -2.18 28.84 -0.75 29.14 0.74 29.42 2.24 29.68 3.79 29.94 0 -0.01zm664.65 488.75l43.42 284.56 -0.01 0 -44.34 5.63 -44.2 3.34 -43.94 1.1 -43.6 -1.11 -43.18 -3.26 -42.68 -5.39 -42.14 -7.43 -41.52 -9.48 -40.82 -11.43 -40.06 -13.37 -39.24 -15.24 -38.35 -17.07 -37.43 -18.86 -36.39 -20.58 -35.34 -22.28 -34.24 -23.93 -33.05 -25.54 -31.81 -27.1 -30.52 -28.63 -29.14 -30.09 -27.73 -31.53 -26.24 -32.9 -24.69 -34.25 -23.1 -35.56 -21.41 -36.81 -19.67 -38 -17.85 -39.14 -16 -40.25 -14.05 -41.29 -12.05 -42.25 -9.99 -43.18 -7.85 -44.01 284.56 -43.42 5.31 29.71 6.71 29 8.07 28.31 9.39 27.59 10.68 26.87 11.93 26.14 13.13 25.36 14.29 24.57 15.42 23.74 16.53 22.91 17.56 22.04 18.57 21.11 19.54 20.17 20.46 19.19 21.35 18.18 22.17 17.14 22.96 16.05 23.74 14.96 24.43 13.82 25.07 12.64 25.69 11.43 26.26 10.2 26.78 8.93 27.28 7.65 27.7 6.32 28.12 4.97 28.5 3.59 28.84 2.18 29.14 0.75 29.42 -0.74 29.68 -2.24 29.94 -3.79 -0.01 0zm488.75 -664.65l284.56 -43.42 0 0.01 5.63 44.34 3.34 44.2 1.1 43.94 -1.11 43.6 -3.26 43.18 -5.39 42.68 -7.43 42.14 -9.48 41.52 -11.43 40.82 -13.37 40.06 -15.24 39.24 -17.07 38.35 -18.86 37.43 -20.58 36.39 -22.28 35.34 -23.93 34.24 -25.54 33.05 -27.1 31.81 -28.63 30.52 -30.09 29.14 -31.53 27.73 -32.9 26.24 -34.25 24.69 -35.56 23.1 -36.81 21.41 -38 19.67 -39.14 17.85 -40.25 16 -41.29 14.05 -42.25 12.05 -43.18 9.99 -44.01 7.85 -43.42 -284.56 29.71 -5.31 29 -6.71 28.31 -8.07 27.59 -9.39 26.87 -10.68 26.14 -11.93 25.36 -13.13 24.57 -14.29 23.74 -15.42 22.91 -16.53 22.04 -17.56 21.11 -18.57 20.17 -19.54 19.19 -20.46 18.18 -21.35 17.14 -22.17 16.05 -22.96 14.96 -23.74 13.82 -24.43 12.64 -25.07 11.43 -25.69 10.2 -26.26 8.93 -26.78 7.65 -27.28 6.32 -27.7 4.97 -28.12 3.59 -28.5 2.18 -28.84 0.75 -29.14 -0.74 -29.42 -2.24 -29.68 -3.79 -29.94 0 0.01zm-664.66 -488.75l-43.4 -284.56 44.34 -5.63 44.2 -3.34 43.94 -1.1 43.6 1.11 43.18 3.26 42.68 5.39 42.14 7.43 41.52 9.48 40.82 11.43 40.06 13.37 39.24 15.24 38.35 17.07 37.43 18.86 36.39 20.58 35.34 22.28 34.24 23.93 33.05 25.54 31.81 27.1 30.52 28.63 29.14 30.09 27.73 31.53 26.24 32.9 24.69 34.25 23.1 35.56 21.41 36.81 19.67 38 17.85 39.14 16 40.25 14.05 41.29 12.05 42.25 9.99 43.18 7.85 44.01 -284.56 43.42 -5.31 -29.71 -6.71 -29 -8.07 -28.31 -9.39 -27.59 -10.68 -26.87 -11.93 -26.14 -13.13 -25.36 -14.29 -24.57 -15.42 -23.74 -16.53 -22.91 -17.56 -22.04 -18.57 -21.11 -19.54 -20.17 -20.46 -19.19 -21.35 -18.18 -22.17 -17.14 -22.96 -16.05 -23.74 -14.96 -24.43 -13.82 -25.07 -12.64 -25.69 -11.43 -26.26 -10.2 -26.78 -8.93 -27.28 -7.65 -27.7 -6.32 -28.12 -4.97 -28.5 -3.59 -28.84 -2.18 -29.14 -0.75 -29.42 0.74 -29.68 2.24 -29.94 3.79zm-1838.82 710.21l789.48 1350.72 -248.52 145.26 -789.48 -1350.72 248.52 -145.26zm2546.01 479.57l-1123.88 1136.62 -204.7 -202.4 1123.88 -1136.62 204.7 202.4zm-766.13 -1177.6l-1635.62 423.24 -72.12 -278.68 1635.62 -423.24 72.12 278.68zm-1010.1 1980.51l-284.56 43.42 0 0 -3.52 -27.69 -2.09 -27.67 -0.68 -27.46 0.68 -27.3 2.05 -27.06 3.37 -26.73 4.66 -26.38 5.92 -25.97 7.17 -25.61 8.37 -25.06 9.53 -24.55 10.7 -24.04 11.79 -23.39 12.88 -22.77 13.93 -22.09 14.96 -21.42 15.99 -20.68 16.95 -19.89 17.89 -19.07 18.8 -18.22 19.75 -17.38 20.62 -16.43 21.44 -15.46 22.26 -14.45 23.03 -13.39 23.79 -12.32 24.51 -11.19 25.24 -10.03 25.84 -8.78 26.42 -7.55 27.05 -6.24 27.46 -4.9 43.4 284.56 -13.2 2.36 -12.79 2.96 -12.5 3.57 -12.18 4.14 -11.78 4.69 -11.51 5.25 -11.17 5.78 -10.83 6.31 -10.46 6.79 -10.1 7.28 -9.7 7.73 -9.29 8.18 -8.92 8.64 -8.49 9.05 -8.03 9.43 -7.57 9.8 -7.1 10.14 -6.61 10.49 -6.1 10.79 -5.59 11.09 -5.04 11.3 -4.49 11.59 -3.95 11.82 -3.35 11.95 -2.78 12.23 -2.2 12.38 -1.57 12.55 -0.97 12.68 -0.32 12.82 0.32 13.02 0.99 13.09 1.68 13.29 0 0zm293.2 215.61l43.4 284.56 0 0 -27.68 3.52 -27.67 2.09 -27.46 0.68 -27.3 -0.68 -27.06 -2.05 -26.73 -3.37 -26.38 -4.66 -25.97 -5.92 -25.61 -7.17 -25.06 -8.37 -24.55 -9.53 -24.04 -10.7 -23.39 -11.79 -22.77 -12.88 -22.09 -13.93 -21.42 -14.96 -20.68 -15.99 -19.89 -16.95 -19.07 -17.89 -18.22 -18.8 -17.38 -19.75 -16.43 -20.62 -15.46 -21.44 -14.45 -22.26 -13.39 -23.03 -12.32 -23.79 -11.19 -24.51 -10.03 -25.24 -8.78 -25.84 -7.55 -26.42 -6.24 -27.05 -4.9 -27.45 284.56 -43.42 2.36 13.21 2.96 12.79 3.57 12.5 4.14 12.18 4.69 11.78 5.25 11.51 5.78 11.17 6.31 10.83 6.79 10.46 7.28 10.1 7.73 9.7 8.18 9.29 8.64 8.92 9.05 8.49 9.43 8.03 9.8 7.57 10.14 7.1 10.49 6.61 10.79 6.1 11.09 5.59 11.3 5.04 11.59 4.49 11.82 3.95 11.95 3.35 12.23 2.78 12.38 2.2 12.55 1.57 12.68 0.97 12.82 0.32 13.02 -0.32 13.09 -0.99 13.3 -1.68 0 0zm215.6 -293.19l284.56 -43.42 0 0 3.52 27.69 2.09 27.67 0.68 27.46 -0.68 27.3 -2.05 27.06 -3.37 26.73 -4.66 26.38 -5.92 25.97 -7.17 25.61 -8.37 25.06 -9.53 24.55 -10.7 24.04 -11.79 23.39 -12.88 22.77 -13.93 22.09 -14.96 21.42 -15.99 20.68 -16.95 19.89 -17.89 19.07 -18.8 18.22 -19.75 17.38 -20.62 16.43 -21.44 15.46 -22.26 14.45 -23.03 13.39 -23.79 12.32 -24.51 11.19 -25.24 10.03 -25.84 8.78 -26.42 7.55 -27.05 6.24 -27.46 4.9 -43.4 -284.56 13.2 -2.36 12.79 -2.96 12.5 -3.57 12.18 -4.14 11.78 -4.69 11.51 -5.25 11.17 -5.78 10.83 -6.31 10.46 -6.79 10.1 -7.28 9.7 -7.73 9.29 -8.18 8.92 -8.64 8.49 -9.05 8.03 -9.43 7.57 -9.8 7.1 -10.14 6.61 -10.49 6.1 -10.79 5.59 -11.09 5.04 -11.3 4.49 -11.59 3.95 -11.82 3.35 -11.95 2.78 -12.23 2.2 -12.38 1.57 -12.55 0.97 -12.68 0.32 -12.82 -0.32 -13.02 -0.99 -13.09 -1.68 -13.29 0 0zm-293.2 -215.61l-43.4 -284.56 27.68 -3.52 27.67 -2.09 27.46 -0.68 27.3 0.68 27.06 2.05 26.73 3.37 26.38 4.66 25.97 5.92 25.61 7.17 25.06 8.37 24.55 9.53 24.04 10.7 23.39 11.79 22.77 12.88 22.09 13.93 21.42 14.96 20.68 15.99 19.89 16.95 19.07 17.89 18.22 18.8 17.38 19.75 16.43 20.62 15.46 21.44 14.45 22.26 13.39 23.03 12.32 23.79 11.19 24.51 10.03 25.24 8.78 25.84 7.55 26.42 6.24 27.05 4.9 27.45 -284.56 43.42 -2.36 -13.21 -2.96 -12.79 -3.57 -12.5 -4.14 -12.18 -4.69 -11.78 -5.25 -11.51 -5.78 -11.17 -6.31 -10.83 -6.79 -10.46 -7.28 -10.1 -7.73 -9.7 -8.18 -9.29 -8.64 -8.92 -9.05 -8.49 -9.43 -8.03 -9.8 -7.57 -10.14 -7.1 -10.49 -6.61 -10.79 -6.1 -11.09 -5.59 -11.3 -5.04 -11.59 -4.49 -11.82 -3.95 -11.95 -3.35 -12.23 -2.78 -12.38 -2.2 -12.55 -1.57 -12.68 -0.97 -12.82 -0.32 -13.02 0.32 -13.09 0.99 -13.3 1.68zm-1008.04 -1053.75l-284.56 43.42 -0.01 -0.02 -3.02 -23.85 -1.8 -23.82 -0.59 -23.67 0.59 -23.52 1.77 -23.37 2.91 -23.05 4.01 -22.72 5.11 -22.41 6.17 -22.04 7.22 -21.64 8.22 -21.17 9.21 -20.7 10.17 -20.16 11.11 -19.64 11.98 -19.01 12.91 -18.48 13.79 -17.83 14.57 -17.11 15.43 -16.45 16.26 -15.75 17 -14.95 17.72 -14.13 18.5 -13.34 19.19 -12.46 19.87 -11.57 20.56 -10.64 21.12 -9.63 21.69 -8.62 22.3 -7.6 22.83 -6.5 23.26 -5.38 23.66 -4.22 43.42 284.56 -9.38 1.68 -9.1 2.1 -8.81 2.52 -8.58 2.92 -8.39 3.34 -8.14 3.71 -7.84 4.06 -7.65 4.45 -7.39 4.8 -7.12 5.14 -6.9 5.51 -6.6 5.79 -6.28 6.09 -5.99 6.39 -5.73 6.73 -5.35 6.91 -5.01 7.18 -4.72 7.47 -4.31 7.62 -3.95 7.86 -3.57 8 -3.18 8.19 -2.78 8.32 -2.37 8.48 -1.97 8.63 -1.55 8.78 -1.13 8.87 -0.67 8.91 -0.23 9.08 0.23 9.21 0.7 9.3 1.2 9.45 -0.01 -0.02zm207.47 152.57l43.42 284.56 -0.02 0.01 -23.85 3.02 -23.82 1.8 -23.67 0.59 -23.52 -0.59 -23.37 -1.77 -23.05 -2.91 -22.72 -4.01 -22.41 -5.11 -22.04 -6.17 -21.64 -7.22 -21.17 -8.22 -20.7 -9.21 -20.16 -10.17 -19.64 -11.11 -19.01 -11.98 -18.48 -12.91 -17.83 -13.79 -17.11 -14.57 -16.45 -15.43 -15.75 -16.26 -14.95 -17 -14.13 -17.72 -13.34 -18.5 -12.46 -19.19 -11.57 -19.87 -10.64 -20.56 -9.63 -21.12 -8.62 -21.69 -7.6 -22.3 -6.5 -22.83 -5.38 -23.26 -4.22 -23.66 284.56 -43.42 1.68 9.38 2.1 9.1 2.52 8.81 2.92 8.58 3.34 8.39 3.71 8.14 4.06 7.84 4.45 7.65 4.8 7.39 5.14 7.12 5.51 6.9 5.79 6.6 6.09 6.28 6.39 5.99 6.73 5.73 6.91 5.35 7.18 5.01 7.47 4.72 7.62 4.31 7.86 3.95 8 3.57 8.19 3.18 8.32 2.78 8.48 2.37 8.63 1.97 8.78 1.55 8.87 1.13 8.91 0.67 9.08 0.23 9.21 -0.23 9.3 -0.7 9.45 -1.2 -0.02 0.01zm152.57 -207.47l284.56 -43.42 0.01 0.02 3.02 23.85 1.8 23.82 0.59 23.67 -0.59 23.52 -1.77 23.37 -2.91 23.05 -4.01 22.73 -5.11 22.39 -6.17 22.04 -7.22 21.65 -8.22 21.17 -9.21 20.7 -10.17 20.16 -11.11 19.64 -11.98 19.01 -12.91 18.48 -13.79 17.83 -14.57 17.11 -15.43 16.45 -16.26 15.75 -17 14.95 -17.72 14.13 -18.5 13.34 -19.19 12.46 -19.87 11.57 -20.56 10.64 -21.12 9.63 -21.69 8.62 -22.3 7.6 -22.83 6.5 -23.26 5.38 -23.66 4.22 -43.42 -284.56 9.38 -1.68 9.1 -2.1 8.81 -2.52 8.58 -2.92 8.39 -3.34 8.14 -3.71 7.84 -4.06 7.65 -4.45 7.39 -4.8 7.12 -5.14 6.9 -5.51 6.6 -5.79 6.28 -6.09 5.99 -6.39 5.73 -6.73 5.35 -6.91 5.01 -7.18 4.72 -7.47 4.31 -7.62 3.95 -7.86 3.57 -8 3.18 -8.19 2.78 -8.31 2.37 -8.5 1.97 -8.63 1.55 -8.77 1.13 -8.87 0.67 -8.91 0.23 -9.08 -0.23 -9.21 -0.7 -9.3 -1.2 -9.45 0.01 0.02zm-207.49 -152.56l-43.38 -284.58 23.85 -3.02 23.82 -1.8 23.67 -0.59 23.52 0.59 23.37 1.77 23.05 2.91 22.73 4.01 22.39 5.11 22.04 6.17 21.65 7.22 21.17 8.22 20.7 9.21 20.16 10.17 19.64 11.11 19.04 12 18.44 12.89 17.82 13.77 17.13 14.59 16.45 15.43 15.75 16.26 14.95 17 14.13 17.72 13.34 18.5 12.46 19.19 11.57 19.87 10.64 20.56 9.63 21.12 8.62 21.69 7.6 22.3 6.5 22.83 5.38 23.26 4.22 23.66 -284.56 43.42 -1.68 -9.38 -2.1 -9.1 -2.52 -8.81 -2.92 -8.58 -3.34 -8.39 -3.71 -8.14 -4.06 -7.84 -4.45 -7.65 -4.8 -7.39 -5.14 -7.12 -5.51 -6.9 -5.79 -6.6 -6.09 -6.28 -6.39 -5.99 -6.71 -5.71 -6.94 -5.37 -7.2 -5.03 -7.44 -4.7 -7.62 -4.31 -7.86 -3.95 -8 -3.57 -8.19 -3.18 -8.31 -2.78 -8.5 -2.37 -8.63 -1.97 -8.77 -1.55 -8.87 -1.13 -8.91 -0.67 -9.08 -0.23 -9.21 0.23 -9.3 0.7 -9.45 1.2zm1719.26 150.25l-284.58 43.4 0 0 -2.35 -18.59 -1.4 -18.56 -0.46 -18.43 0.46 -18.33 1.37 -18.19 2.27 -18.02 3.14 -17.8 4 -17.49 4.81 -17.14 5.62 -16.86 6.41 -16.51 7.15 -16.08 7.95 -15.79 8.68 -15.32 9.33 -14.81 10.03 -14.34 10.72 -13.89 11.43 -13.42 12.01 -12.79 12.64 -12.25 13.25 -11.65 13.85 -11.05 14.43 -10.39 14.97 -9.73 15.49 -9 15.96 -8.27 16.57 -7.57 16.96 -6.72 17.31 -5.9 17.83 -5.08 18.15 -4.19 18.39 -3.29 43.4 284.58 -4.15 0.73 -3.93 0.91 -3.77 1.08 -3.75 1.28 -3.58 1.42 -3.39 1.55 -3.42 1.77 -3.29 1.92 -3.17 2.05 -3.05 2.21 -2.95 2.35 -2.85 2.51 -2.74 2.65 -2.61 2.79 -2.43 2.84 -2.32 3.01 -2.21 3.16 -2.05 3.25 -1.86 3.28 -1.67 3.33 -1.57 3.52 -1.37 3.51 -1.2 3.6 -1.03 3.68 -0.84 3.69 -0.66 3.68 -0.47 3.76 -0.29 3.85 -0.1 3.91 0.1 4.01 0.3 4.04 0.53 4.13 0 0zm89.47 65.79l43.4 284.58 0 0 -18.59 2.35 -18.56 1.4 -18.43 0.46 -18.33 -0.46 -18.19 -1.37 -18.02 -2.27 -17.8 -3.14 -17.49 -4 -17.14 -4.81 -16.86 -5.62 -16.51 -6.41 -16.08 -7.15 -15.79 -7.95 -15.32 -8.68 -14.81 -9.33 -14.34 -10.03 -13.89 -10.72 -13.42 -11.43 -12.79 -12.01 -12.25 -12.64 -11.65 -13.25 -11.05 -13.85 -10.39 -14.43 -9.73 -14.97 -9 -15.49 -8.27 -15.96 -7.57 -16.57 -6.72 -16.96 -5.9 -17.31 -5.08 -17.83 -4.19 -18.15 -3.29 -18.39 284.58 -43.4 0.73 4.15 0.91 3.93 1.08 3.77 1.28 3.75 1.42 3.58 1.55 3.39 1.77 3.42 1.92 3.29 2.05 3.17 2.21 3.05 2.35 2.95 2.51 2.85 2.65 2.74 2.79 2.61 2.84 2.43 3.01 2.32 3.16 2.21 3.25 2.05 3.28 1.86 3.33 1.67 3.52 1.57 3.51 1.37 3.6 1.2 3.68 1.03 3.69 0.84 3.68 0.66 3.76 0.47 3.85 0.29 3.91 0.1 4.01 -0.1 4.04 -0.3 4.13 -0.53 0 0zm65.79 -89.47l284.58 -43.4 0 0 2.35 18.59 1.4 18.56 0.46 18.43 -0.46 18.33 -1.37 18.19 -2.27 18.02 -3.14 17.8 -4 17.49 -4.81 17.14 -5.62 16.86 -6.41 16.51 -7.15 16.08 -7.95 15.79 -8.68 15.32 -9.33 14.81 -10.03 14.34 -10.72 13.89 -11.43 13.42 -12.01 12.79 -12.64 12.25 -13.25 11.65 -13.85 11.05 -14.43 10.39 -14.97 9.73 -15.49 9 -15.96 8.27 -16.57 7.57 -16.96 6.72 -17.31 5.9 -17.83 5.08 -18.15 4.19 -18.39 3.29 -43.4 -284.58 4.15 -0.73 3.93 -0.91 3.77 -1.08 3.75 -1.28 3.58 -1.42 3.39 -1.55 3.42 -1.77 3.29 -1.92 3.17 -2.05 3.05 -2.21 2.95 -2.35 2.85 -2.51 2.74 -2.65 2.61 -2.79 2.43 -2.84 2.32 -3.01 2.21 -3.16 2.05 -3.25 1.86 -3.28 1.67 -3.33 1.57 -3.52 1.37 -3.51 1.2 -3.6 1.03 -3.68 0.84 -3.69 0.66 -3.68 0.47 -3.76 0.29 -3.85 0.1 -3.91 -0.1 -4.01 -0.3 -4.04 -0.53 -4.13 0 0zm-89.47 -65.79l-43.4 -284.58 18.59 -2.35 18.56 -1.4 18.43 -0.46 18.33 0.46 18.19 1.37 18.02 2.27 17.8 3.14 17.49 4 17.14 4.81 16.86 5.62 16.51 6.41 16.08 7.15 15.79 7.95 15.32 8.68 14.81 9.33 14.34 10.03 13.89 10.72 13.42 11.43 12.79 12.01 12.25 12.64 11.65 13.25 11.05 13.85 10.39 14.43 9.73 14.97 9 15.49 8.27 15.96 7.57 16.57 6.72 16.96 5.9 17.31 5.08 17.83 4.19 18.15 3.29 18.39 -284.58 43.4 -0.73 -4.15 -0.91 -3.93 -1.08 -3.77 -1.28 -3.75 -1.42 -3.58 -1.55 -3.39 -1.77 -3.42 -1.92 -3.29 -2.05 -3.17 -2.21 -3.05 -2.35 -2.95 -2.51 -2.85 -2.65 -2.74 -2.79 -2.61 -2.84 -2.43 -3.01 -2.32 -3.16 -2.21 -3.25 -2.05 -3.28 -1.86 -3.33 -1.67 -3.52 -1.57 -3.51 -1.37 -3.6 -1.2 -3.68 -1.03 -3.69 -0.84 -3.68 -0.66 -3.76 -0.47 -3.85 -0.29 -3.91 -0.1 -4.01 0.1 -4.04 0.3 -4.13 0.53z"/>
   </g>
   <g>
    <path class="fil0" d="M8021.24 14359.39c-68.84,39.74 -156.88,16.16 -196.62,-52.68 -39.74,-68.84 -16.16,-156.88 52.68,-196.62l143.94 249.3zm993.12 -573.38l-993.12 573.38 -143.94 -249.3 993.12 -573.38 143.94 249.3zm-143.94 -249.3c68.84,-39.74 156.88,-16.16 196.62,52.68 39.74,68.84 16.16,156.88 -52.68,196.62l-143.94 -249.3zm757.15 3317.06c39.74,68.83 16.16,156.87 -52.67,196.61 -68.83,39.74 -156.87,16.16 -196.61,-52.67l249.28 -143.94zm-416.84 -721.94l416.84 721.94 -249.28 143.94 -416.84 -721.94 52.67 -196.62 196.61 52.68zm-249.28 143.94c-39.74,-68.83 -16.16,-156.87 52.67,-196.61 68.83,-39.74 156.87,-16.16 196.61,52.67l-249.28 143.94zm434.89 -84.9l-238.28 137.58 -143.94 -249.3 238.28 -137.58 196.61 52.67 -52.67 196.63zm-143.94 -249.3c68.84,-39.74 156.88,-16.16 196.62,52.68 39.74,68.84 16.16,156.88 -52.68,196.62l-143.94 -249.3zm124.03 -73.01l72.58 125.68 -249.28 143.96 -72.58 -125.68 52.67 -196.62 196.61 52.66zm-249.28 143.96c-39.75,-68.83 -16.17,-156.87 52.66,-196.62 68.83,-39.75 156.87,-16.17 196.62,52.66l-249.28 143.96zm-185.59 -59.04l238.26 -137.58 143.94 249.28 -238.26 137.58 -196.62 -52.68 52.68 -196.6zm143.94 249.28c-68.83,39.74 -156.87,16.16 -196.61,-52.67 -39.74,-68.83 -16.16,-156.87 52.67,-196.61l143.94 249.28zm-164.26 -572.36l216.94 375.76 -249.3 143.92 -216.94 -375.76 52.68 -196.61 196.62 52.69zm-249.3 143.92c-39.74,-68.84 -16.15,-156.87 52.69,-196.61 68.84,-39.74 156.87,-16.15 196.61,52.69l-249.3 143.92zm434.88 -84.87l-238.26 137.56 -143.94 -249.3 238.26 -137.56 196.62 52.69 -52.68 196.61zm-143.94 -249.3c68.84,-39.74 156.88,-16.16 196.62,52.68 39.74,68.84 16.16,156.88 -52.68,196.62l-143.94 -249.3zm124.06 -72.99l72.56 125.68 -249.3 143.92 -72.56 -125.68 52.68 -196.61 196.62 52.69zm-249.3 143.92c-39.74,-68.84 -16.15,-156.87 52.69,-196.61 68.84,-39.74 156.87,-16.15 196.61,52.69l-249.3 143.92zm-185.58 -59.05l238.26 -137.56 143.94 249.3 -238.26 137.56 -196.62 -52.69 52.68 -196.61zm143.94 249.3c-68.84,39.74 -156.88,16.16 -196.62,-52.68 -39.74,-68.84 -16.16,-156.88 52.68,-196.62l143.94 249.3zm-164.24 -572.35l216.92 375.74 -249.3 143.92 -216.92 -375.74 52.68 -196.6 196.62 52.68zm-249.3 143.92c-39.74,-68.84 -16.15,-156.87 52.69,-196.61 68.84,-39.74 156.87,-16.15 196.61,52.69l-249.3 143.92zm434.86 -84.88l-238.24 137.56 -143.94 -249.28 238.24 -137.56 196.61 52.66 -52.67 196.62zm-143.94 -249.28c68.83,-39.74 156.87,-16.16 196.61,52.67 39.74,68.83 16.16,156.87 -52.67,196.61l-143.94 -249.28zm124.03 -73.02l72.58 125.68 -249.28 143.96 -72.58 -125.68 52.67 -196.62 196.61 52.66zm-249.28 143.96c-39.75,-68.83 -16.17,-156.87 52.66,-196.62 68.83,-39.75 156.87,-16.17 196.62,52.66l-249.28 143.96zm-185.55 -59.06l238.22 -137.56 143.94 249.28 -238.22 137.56 -196.62 -52.67 52.68 -196.61zm143.94 249.28c-68.83,39.74 -156.87,16.16 -196.61,-52.67 -39.74,-68.83 -16.16,-156.87 52.67,-196.61l143.94 249.28zm-164.28 -572.39l216.96 375.78 -249.3 143.94 -216.96 -375.78 52.7 -196.62 196.6 52.68zm-249.3 143.94c-39.74,-68.84 -16.16,-156.88 52.68,-196.62 68.84,-39.74 156.88,-16.16 196.62,52.68l-249.3 143.94zm434.84 -84.84l-238.24 137.52 -143.9 -249.3 238.24 -137.52 196.6 52.69 -52.7 196.61zm-143.9 -249.3c68.84,-39.73 156.87,-16.14 196.6,52.7 39.73,68.84 16.14,156.87 -52.7,196.6l-143.9 -249.3zm124.04 -72.99l72.56 125.68 -249.3 143.92 -72.56 -125.68 52.7 -196.61 196.6 52.69zm-249.3 143.92c-39.74,-68.84 -16.15,-156.87 52.69,-196.61 68.84,-39.74 156.87,-16.15 196.61,52.69l-249.3 143.92zm-185.54 -59.09l238.24 -137.52 143.9 249.3 -238.24 137.52 -196.6 -52.68 52.7 -196.62zm143.9 249.3c-68.84,39.73 -156.87,16.14 -196.6,-52.7 -39.73,-68.84 -16.14,-156.87 52.7,-196.6l143.9 249.3zm-143.06 -535.68l195.76 339.06 -249.3 143.94 -195.76 -339.06 249.29 -143.94 0.01 0zm-249.3 143.94c-39.74,-68.84 -16.16,-156.88 52.68,-196.62 68.84,-39.74 156.88,-16.16 196.62,52.68l-249.3 143.94zm282.67 -1054.96l143.92 249.3 0.01 -0.01 -21.23 13 -20.27 13.87 -19.35 14.75 -18.41 15.55 -17.46 16.32 -16.52 17.09 -15.62 17.83 -14.66 18.5 -13.68 19.12 -12.7 19.72 -11.73 20.3 -10.74 20.82 -9.71 21.28 -8.68 21.69 -7.64 22.09 -6.59 22.44 -5.5 22.69 -4.43 22.94 -3.33 23.17 -2.24 23.28 -1.11 23.36 0.02 23.46 1.13 23.43 2.3 23.4 3.44 23.35 4.6 23.21 5.78 23.07 6.96 22.89 8.17 22.68 9.37 22.4 10.63 22.15 11.89 21.88 -249.28 143.94 -18.89 -34.72 -16.97 -35.37 -15.03 -35.92 -13.07 -36.32 -11.18 -36.69 -9.26 -36.99 -7.38 -37.19 -5.5 -37.31 -3.66 -37.4 -1.83 -37.39 -0.02 -37.3 1.77 -37.2 3.54 -36.96 5.29 -36.69 7.01 -36.38 8.74 -35.99 10.43 -35.52 12.1 -35.01 13.78 -34.45 15.43 -33.78 17.04 -33.06 18.67 -32.3 20.28 -31.48 21.88 -30.56 23.42 -29.56 24.96 -28.51 26.52 -27.41 28.04 -26.22 29.49 -24.91 30.95 -23.57 32.37 -22.15 33.73 -20.64 0.01 -0.01zm-0.01 0.01c68.83,-39.74 156.87,-16.16 196.61,52.67 39.74,68.83 16.16,156.87 -52.67,196.61l-143.94 -249.28zm1041.87 -269.13l-897.94 518.42 -143.92 -249.3 897.94 -518.42 143.93 249.3 -0.01 0zm-143.92 -249.3c68.84,-39.74 156.87,-16.15 196.61,52.69 39.74,68.84 16.15,156.87 -52.69,196.61l-143.92 -249.3zm1054.95 282.64l-249.3 143.94 0 0 -12.99 -21.23 -13.88 -20.28 -14.73 -19.33 -15.55 -18.41 -16.34 -17.47 -17.09 -16.55 -17.79 -15.57 -18.51 -14.67 -19.12 -13.68 -19.72 -12.7 -20.3 -11.73 -20.8 -10.73 -21.28 -9.7 -21.71 -8.69 -22.09 -7.64 -22.44 -6.59 -22.69 -5.5 -22.94 -4.43 -23.16 -3.33 -23.29 -2.24 -23.36 -1.11 -23.45 0.02 -23.44 1.13 -23.4 2.3 -23.36 3.44 -23.21 4.6 -23.06 5.78 -22.9 6.97 -22.68 8.16 -22.4 9.37 -22.16 10.63 -21.88 11.9 -143.94 -249.3 34.74 -18.88 35.36 -16.97 35.92 -15.03 36.32 -13.08 36.7 -11.17 36.98 -9.26 37.21 -7.38 37.3 -5.5 37.4 -3.66 37.4 -1.83 37.29 -0.02 37.2 1.77 36.97 3.54 36.68 5.29 36.38 7.01 35.99 8.74 35.52 10.43 35.01 12.1 34.43 13.77 33.78 15.42 33.08 17.05 32.3 18.67 31.48 20.28 30.56 21.88 29.55 23.41 28.53 24.99 27.39 26.51 26.2 28.01 24.93 29.51 23.57 30.95 22.14 32.36 20.65 33.73 0 0zm0 0c39.74,68.84 16.16,156.88 -52.68,196.62 -68.84,39.74 -156.88,16.16 -196.62,-52.68l249.3 -143.94zm-106.42 391.4l-142.88 -247.46 249.3 -143.94 142.88 247.46 -124.65 215.9 -124.65 -71.96zm249.3 -143.94c39.74,68.84 16.16,156.88 -52.68,196.62 -68.84,39.74 -156.88,16.16 -196.62,-52.68l249.3 -143.94zm718.59 215.9l-843.24 0 0 -287.86 843.24 0 124.65 215.89 -124.65 71.97zm0 -287.86c79.49,0 143.93,64.44 143.93,143.93 0,79.49 -64.44,143.93 -143.93,143.93l0 -287.86zm267.51 -31.57l-142.86 247.46 -249.3 -143.92 142.86 -247.46 0 0 249.3 143.92zm-249.3 -143.92c39.74,-68.84 127.77,-92.43 196.61,-52.69 68.84,39.74 92.43,127.77 52.69,196.61l-249.3 -143.92zm1054.93 -282.65l-143.92 249.3 -0.01 -0.01 -21.88 -11.89 -22.15 -10.63 -22.39 -9.37 -22.7 -8.16 -22.89 -6.97 -23.07 -5.78 -23.21 -4.6 -23.35 -3.44 -23.4 -2.3 -23.44 -1.13 -23.45 -0.02 -23.36 1.11 -23.29 2.24 -23.16 3.33 -22.94 4.43 -22.69 5.5 -22.44 6.59 -22.09 7.64 -21.71 8.69 -21.28 9.7 -20.8 10.73 -20.29 11.72 -19.71 12.7 -19.13 13.69 -18.52 14.68 -17.8 15.57 -17.08 16.54 -16.33 17.46 -15.55 18.42 -14.75 19.35 -13.86 20.24 -12.99 21.24 -249.3 -143.92 20.63 -33.72 22.16 -32.4 23.57 -30.93 24.91 -29.5 26.21 -28.02 27.4 -26.52 28.54 -24.99 29.54 -23.4 30.55 -21.87 31.47 -20.28 32.31 -18.68 33.08 -17.05 33.78 -15.42 34.43 -13.77 35.01 -12.1 35.52 -10.43 35.99 -8.74 36.38 -7.01 36.68 -5.29 36.97 -3.54 37.2 -1.77 37.29 0.02 37.4 1.83 37.4 3.66 37.31 5.5 37.19 7.38 36.99 9.26 36.69 11.17 36.32 13.08 35.93 15.03 35.37 16.97 34.72 18.89 -0.01 -0.01zm0.01 0.01c68.83,39.74 92.41,127.78 52.67,196.61 -39.74,68.83 -127.78,92.41 -196.61,52.67l143.94 -249.28zm754.01 767.71l-897.94 -518.42 143.92 -249.3 897.94 518.42 -143.92 249.3zm143.92 -249.3c68.84,39.74 92.43,127.77 52.69,196.61 -39.74,68.84 -127.77,92.43 -196.61,52.69l143.92 -249.3zm282.69 1054.96l-249.3 -143.94 0 0.01 11.89 -21.87 10.62 -22.14 9.38 -22.43 8.16 -22.67 6.96 -22.88 5.77 -23.06 4.6 -23.23 3.45 -23.36 2.29 -23.4 1.14 -23.43 0.01 -23.43 -1.11 -23.4 -2.23 -23.27 -3.34 -23.14 -4.43 -22.98 -5.51 -22.7 -6.57 -22.42 -7.65 -22.09 -8.68 -21.71 -9.71 -21.27 -10.73 -20.83 -11.73 -20.29 -12.71 -19.74 -13.68 -19.12 -14.64 -18.48 -15.59 -17.81 -16.55 -17.09 -17.47 -16.34 -18.41 -15.55 -19.32 -14.73 -20.29 -13.87 -21.23 -13 143.92 -249.3 33.73 20.64 32.37 22.15 30.96 23.57 29.51 24.93 28.01 26.2 26.51 27.39 24.99 28.53 23.44 29.58 21.86 30.56 20.27 31.46 18.67 32.31 17.05 33.07 15.43 33.79 13.76 34.43 12.11 35.01 10.43 35.54 8.73 35.98 7.01 36.36 5.3 36.7 3.53 36.99 1.77 37.16 -0.01 37.31 -1.84 37.39 -3.65 37.4 -5.51 37.3 -7.36 37.19 -9.27 36.98 -11.16 36.72 -13.1 36.33 -15 35.87 -16.96 35.38 -18.89 34.73 0 0.01zm0 -0.01c-39.74,68.84 -127.77,92.43 -196.61,52.69 -68.84,-39.74 -92.43,-127.77 -52.69,-196.61l249.3 143.92zm-1026.14 1201.59l776.84 -1345.52 249.3 143.94 -776.84 1345.52 -249.3 -143.94zm249.3 143.94c-39.74,68.84 -127.78,92.42 -196.62,52.68 -68.84,-39.74 -92.42,-127.78 -52.68,-196.62l249.3 143.94zm724.16 -1542.14c68.84,39.74 92.42,127.78 52.68,196.62 -39.74,68.84 -127.78,92.42 -196.62,52.68l143.94 -249.3zm-993.12 -573.38l993.12 573.38 -143.94 249.3 -993.12 -573.38 143.94 -249.3zm-143.94 249.3c-68.84,-39.74 -92.42,-127.78 -52.68,-196.62 39.74,-68.84 127.78,-92.42 196.62,-52.68l-143.94 249.3z"/>
   </g>
  </g>
 </g>
</svg>
