<?xml version="1.0" encoding="UTF-8"?>
<!DOCTYPE svg PUBLIC "-//W3C//DTD SVG 1.1//EN" "http://www.w3.org/Graphics/SVG/1.1/DTD/svg11.dtd">
<!-- Creator: CorelDRAW 2018 (64-Bit) -->
<svg xmlns="http://www.w3.org/2000/svg" xml:space="preserve" width="210mm" height="297mm" version="1.1" style="shape-rendering:geometricPrecision; text-rendering:geometricPrecision; image-rendering:optimizeQuality; fill-rule:evenodd; clip-rule:evenodd"
viewBox="0 0 21000 29700"
 xmlns:xlink="http://www.w3.org/1999/xlink">
 <defs>
  <style type="text/css">
   <![CDATA[
    .str0 {stroke:#002869;stroke-width:287.86;stroke-linecap:round;stroke-linejoin:round;stroke-miterlimit:22.9256}
    .str1 {stroke:#002869;stroke-width:287.86;stroke-linecap:round;stroke-linejoin:round;stroke-miterlimit:22.9256}
    .fil0 {fill:none}
   ]]>
  </style>
 </defs>
 <g id="Слой_x0020_1">
  <metadata id="CorelCorpID_0Corel-Layer"/>
  <path class="fil0 str0" d="M10660.12 16548.08c0,295.98 -242.16,538.14 -538.16,538.14l-888.02 0c-296,0 -538.14,-242.16 -538.14,-538.14l0 -2661.28c0,-296 242.14,-538.14 538.14,-538.14l888.02 0c296,0 538.16,242.14 538.16,538.14l0 2661.28m-695.58 -506.7l0 1044.84m-573.18 -1600.1l0 1600.1"/>
  <path class="fil0 str1" d="M10846.78 14914.04l452 -782.9m738.18 1490.9l-984.26 0m984.26 -815.54l-984.26 0m-392.58 175.62l397.58 0c311.3,0 311.28,470.62 0,470.62l-397.58 0m1644.08 -2614.94l-388 -224.02 -793 1373.52 388 224.02 793 -1373.52"/>
 </g>
</svg>
