<?xml version="1.0" encoding="UTF-8"?>
<!DOCTYPE svg PUBLIC "-//W3C//DTD SVG 1.1//EN" "http://www.w3.org/Graphics/SVG/1.1/DTD/svg11.dtd">
<!-- Creator: CorelDRAW 2018 (64-Bit) -->
<svg xmlns="http://www.w3.org/2000/svg" xml:space="preserve" width="210mm" height="297mm" version="1.1" style="shape-rendering:geometricPrecision; text-rendering:geometricPrecision; image-rendering:optimizeQuality; fill-rule:evenodd; clip-rule:evenodd"
viewBox="0 0 21000 29700"
 xmlns:xlink="http://www.w3.org/1999/xlink">
 <defs>
  <style type="text/css">
   <![CDATA[
    .str1 {stroke:#002869;stroke-width:287.86;stroke-linecap:round;stroke-linejoin:round;stroke-miterlimit:22.9256}
    .str0 {stroke:#002869;stroke-width:287.86;stroke-linecap:round;stroke-linejoin:round;stroke-miterlimit:22.9256}
    .fil0 {fill:none}
   ]]>
  </style>
 </defs>
 <g id="Слой_x0020_1">
  <metadata id="CorelCorpID_0Corel-Layer"/>
  <g id="_2377803892176">
   <path class="fil0 str0" d="M11003.44 14789.68l87.26 87.28c17.5,-9.6 36.12,-17.36 55.64,-23.06l0 -123.4 157.48 0 0 123.4c19.5,5.7 38.14,13.46 55.64,23.06l87.26 -87.28 111.36 111.34 -87.28 87.28c9.6,17.5 17.36,36.14 23.06,55.64l123.4 0 0 157.48 -123.4 0c-5.7,19.5 -13.46,38.14 -23.06,55.64l87.28 87.26 -111.36 111.36 -87.26 -87.28c-17.5,9.6 -36.14,17.36 -55.64,23.06l0 123.42 -157.48 0 0 -123.42c-19.52,-5.7 -38.14,-13.46 -55.64,-23.06l-87.26 87.26 -111.36 -111.34 87.28 -87.26c-9.6,-17.5 -17.36,-36.14 -23.08,-55.64l-123.4 0 0 -157.48 123.42 0c5.7,-19.52 13.46,-38.14 23.06,-55.64l-87.28 -87.28 111.36 -111.34m-1776.1 51.52c-155.46,0 -281.48,126.02 -281.48,281.48 0,155.46 126.02,281.48 281.48,281.48 155.46,0 281.48,-126.02 281.48,-281.48 0,155.46 -126.02,281.48 -281.48,281.48m-197.24 -1263.84l394.46 0 0 309.1c48.88,14.3 95.54,33.74 139.36,57.74l218.6 -218.6 278.92 278.92 -218.6 218.6c24.02,43.82 43.48,90.5 57.76,139.38l309.1 0 0 394.42 -309.08 0c-14.3,48.9 -33.74,95.54 -57.76,139.38l218.58 218.6 -278.92 278.92 -218.58 -218.6c-43.82,24.02 -90.5,43.46 -139.38,57.76l0 309.12 -394.46 0 0 -309.12c-48.88,-14.3 -95.54,-33.74 -139.38,-57.76l-218.56 218.56 -278.92 -278.88 218.6 -218.58c-24.02,-43.84 -43.48,-90.52 -57.78,-139.4l-309.08 0 0 -394.42 309.1 0c14.3,-48.9 33.74,-95.56 57.76,-139.4l-218.6 -218.58 278.92 -278.9 218.6 218.6c43.82,-24.02 90.48,-43.46 139.34,-57.76l0 -309.1z"/>
   <path class="fil0 str1" d="M12358.96 15322.08l879.6 0 0 -398.78 -879.6 0m-691.42 -2116.92l-259.14 0m129.56 914.78l0 -914.82m-640.84 1319.44c114.08,-239.28 358.12,-404.62 640.84,-404.62 282.72,0 526.78,165.34 640.84,404.62m-1461.8 1993.78l-1477.78 774.1 -1477.78 0 0 -3541.98 1477.78 0 1477.78 774.1 776.44 0m685.36 0l180.16 0 0 1993.78 -832.7 0"/>
  </g>
 </g>
</svg>
