<?xml version="1.0" encoding="UTF-8"?>
<!DOCTYPE svg PUBLIC "-//W3C//DTD SVG 1.1//EN" "http://www.w3.org/Graphics/SVG/1.1/DTD/svg11.dtd">
<!-- Creator: CorelDRAW 2018 (64-Bit) -->
<svg xmlns="http://www.w3.org/2000/svg" xml:space="preserve" width="210mm" height="297mm" version="1.1" style="shape-rendering:geometricPrecision; text-rendering:geometricPrecision; image-rendering:optimizeQuality; fill-rule:evenodd; clip-rule:evenodd"
viewBox="0 0 21000 29700"
 xmlns:xlink="http://www.w3.org/1999/xlink">
 <defs>
  <style type="text/css">
   <![CDATA[
    .str0 {stroke:#002869;stroke-width:287.86;stroke-miterlimit:22.9256}
    .str1 {stroke:#002869;stroke-width:287.86;stroke-linecap:round;stroke-linejoin:round;stroke-miterlimit:22.9256}
    .fil0 {fill:none}
   ]]>
  </style>
 </defs>
 <g id="Слой_x0020_1">
  <metadata id="CorelCorpID_0Corel-Layer"/>
  <path class="fil0 str0" d="M10821.32 14849.99c0,-694.22 -346.2,-1257 -773.28,-1257 -427.08,0 -773.28,562.78 -773.28,1257 0,694.22 346.2,1257 773.28,1257 427.08,0 773.28,-562.78 773.28,-1257m624.92 0c0,-1068.62 -626,-1934.9 -1398.2,-1934.9 -772.2,0 -1398.2,866.28 -1398.2,1934.9 0,1068.62 626,1934.9 1398.2,1934.9 772.2,0 1398.2,-866.28 1398.2,-1934.9"/>
  <path class="fil0 str1" d="M10048.04 16784.89l903.94 0m334.34 -3813.68c624.74,212.94 1063.84,988.38 1063.84,1878.78 0,1068.6 -625.98,1934.9 -1398.18,1934.9 0,0 0,0 -0.04,0m-598.4 -833.32c-247.22,-220.86 -400.84,-643.02 -400.84,-1101.58 0,-155.4 17.74,-309.42 52.28,-454.32"/>
 </g>
</svg>
