<?xml version="1.0" encoding="UTF-8"?>
<!DOCTYPE svg PUBLIC "-//W3C//DTD SVG 1.1//EN" "http://www.w3.org/Graphics/SVG/1.1/DTD/svg11.dtd">
<!-- Creator: CorelDRAW 2018 (64-Bit) -->
<svg xmlns="http://www.w3.org/2000/svg" xml:space="preserve" width="210mm" height="297mm" version="1.1" style="shape-rendering:geometricPrecision; text-rendering:geometricPrecision; image-rendering:optimizeQuality; fill-rule:evenodd; clip-rule:evenodd"
viewBox="0 0 21000 29700"
 xmlns:xlink="http://www.w3.org/1999/xlink">
 <defs>
  <style type="text/css">
   <![CDATA[
    .str0 {stroke:#002869;stroke-width:287.86;stroke-linecap:round;stroke-linejoin:round;stroke-miterlimit:22.9256}
    .fil0 {fill:none}
   ]]>
  </style>
 </defs>
 <g id="Слой_x0020_1">
  <metadata id="CorelCorpID_0Corel-Layer"/>
  <path class="fil0 str0" d="M13434.64 13160.84c-3482.02,0 -5869.28,-293.76 -5869.28,3383.9 282.7,0 557.32,-7.78 823.34,-23.22l323.06 -755.68c57.96,-135.6 140.06,-262 311.26,-262l479.98 0c171.18,0 253.3,126.5 311.24,262l229.38 536.5c2043.24,-449.4 3292.46,-1516.58 3391.02,-3141.5"/>
  <path class="fil0 str0" d="M12758.26 13158.22c-63.38,1044.68 -789.54,1768.16 -1994.5,2139.26m765.74 -1105.78c0,-225.9 -183.12,-409.02 -409.02,-409.02 -225.9,0 -409.02,183.12 -409.02,409.02 0,225.9 183.12,409.02 409.02,409.02 225.9,0 409.02,-183.12 409.02,-409.02m-2803.06 757.96c0,-440.46 357.06,-797.52 797.52,-797.52 440.46,0 797.52,357.06 797.52,797.52 0,46.88 -4.14,93.68 -12.34,139.86"/>
 </g>
</svg>
