<?xml version="1.0" encoding="UTF-8"?>
<!DOCTYPE svg PUBLIC "-//W3C//DTD SVG 1.1//EN" "http://www.w3.org/Graphics/SVG/1.1/DTD/svg11.dtd">
<!-- Creator: CorelDRAW 2018 (64-Bit) -->
<svg xmlns="http://www.w3.org/2000/svg" xml:space="preserve" width="210mm" height="297mm" version="1.1" style="shape-rendering:geometricPrecision; text-rendering:geometricPrecision; image-rendering:optimizeQuality; fill-rule:evenodd; clip-rule:evenodd"
viewBox="0 0 21000 29700"
 xmlns:xlink="http://www.w3.org/1999/xlink">
 <defs>
  <style type="text/css">
   <![CDATA[
    .str1 {stroke:#002869;stroke-width:287.86;stroke-linecap:round;stroke-linejoin:round;stroke-miterlimit:22.9256}
    .str0 {stroke:#002869;stroke-width:287.86;stroke-linecap:round;stroke-linejoin:round;stroke-miterlimit:22.9256}
    .fil0 {fill:none}
   ]]>
  </style>
 </defs>
 <g id="Слой_x0020_1">
  <metadata id="CorelCorpID_0Corel-Layer"/>
  <path class="fil0 str0" d="M8770.89 12716l2895.23 899.59c133.24,41.42 241.28,201.02 241.28,356.46l-0.02 3166.63c0.02,155.44 -108.02,247.9 -241.26,206.52l-2895.23 -899.6c-133.2,-41.4 -241.24,-201.02 -241.24,-356.45l-0.02 -3166.63c0.02,-155.42 108.06,-247.9 241.3,-206.5"/>
  <path class="fil0 str1" d="M9347.55 12344.92l2867.9 891.1c140.22,43.56 254.92,204.98 254.92,358.74l0 3170.52m-3458.2 -3408.44l2412.68 749.66m-2412.68 -230.08l2412.68 749.66m-2412.68 -230.1l2412.68 749.64m-2412.68 -230.08l2412.68 749.66m-2412.68 -230.1l2412.68 749.66m-2412.68 -230.08l2412.68 749.66"/>
 </g>
</svg>
