<?xml version="1.0" encoding="UTF-8"?>
<!DOCTYPE svg PUBLIC "-//W3C//DTD SVG 1.1//EN" "http://www.w3.org/Graphics/SVG/1.1/DTD/svg11.dtd">
<!-- Creator: CorelDRAW 2018 (64-Bit) -->
<svg xmlns="http://www.w3.org/2000/svg" xml:space="preserve" width="210mm" height="297mm" version="1.1" style="shape-rendering:geometricPrecision; text-rendering:geometricPrecision; image-rendering:optimizeQuality; fill-rule:evenodd; clip-rule:evenodd"
viewBox="0 0 21000 29700"
 xmlns:xlink="http://www.w3.org/1999/xlink">
 <defs>
  <style type="text/css">
   <![CDATA[
    .str1 {stroke:#002869;stroke-width:287.86;stroke-linecap:round;stroke-linejoin:round;stroke-miterlimit:22.9256}
    .str0 {stroke:#002869;stroke-width:287.86;stroke-linecap:round;stroke-linejoin:round;stroke-miterlimit:22.9256}
    .fil0 {fill:none}
   ]]>
  </style>
 </defs>
 <g id="Слой_x0020_1">
  <metadata id="CorelCorpID_0Corel-Layer"/>
  <path class="fil0 str0" d="M8555.68 15069.6c0,1195.1 968.84,2163.94 2163.94,2163.94 1195.12,0 2163.94,-968.84 2163.94,-2163.94 0,-847.18 -486.82,-1580.66 -1195.98,-1935.92m-447.4 1935.9c0,-287.54 -233.08,-520.62 -520.62,-520.62 -287.54,0 -520.62,233.08 -520.62,520.62 0,287.54 233.08,520.62 520.62,520.62 287.54,0 520.62,-233.08 520.62,-520.62"/>
  <path class="fil0 str1" d="M10719.56 13893.34l0 -1426.88c-1437.66,0 -2603.12,1165.44 -2603.12,2603.12l1426.88 0c0,-649.62 526.62,-1176.24 1176.24,-1176.24"/>
 </g>
</svg>
