<svg xmlns="http://www.w3.org/2000/svg" xmlns:xlink="http://www.w3.org/1999/xlink" width="287" height="286" viewBox="0 0 287 286">
  <metadata><?xpacket begin="﻿" id="W5M0MpCehiHzreSzNTczkc9d"?>
<x:xmpmeta xmlns:x="adobe:ns:meta/" x:xmptk="Adobe XMP Core 5.6-c142 79.160924, 2017/07/13-01:06:39        ">
   <rdf:RDF xmlns:rdf="http://www.w3.org/1999/02/22-rdf-syntax-ns#">
      <rdf:Description rdf:about=""/>
   </rdf:RDF>
</x:xmpmeta>
                                                                                                    
                                                                                                    
                                                                                                    
                                                                                                    
                                                                                                    
                                                                                                    
                                                                                                    
                                                                                                    
                                                                                                    
                                                                                                    
                                                                                                    
                                                                                                    
                                                                                                    
                                                                                                    
                                                                                                    
                                                                                                    
                                                                                                    
                                                                                                    
                                                                                                    
                                                                                                    
                           
<?xpacket end="w"?></metadata>
<defs>
    <style>
      .cls-1 {
        fill: #003180;
        fill-rule: evenodd;
        filter: url(#filter);
      }
    </style>
    <filter id="filter" x="276" y="1868" width="287" height="286" filterUnits="userSpaceOnUse">
      <feGaussianBlur result="blur" stdDeviation="3.333" in="SourceAlpha"/>
      <feComposite result="composite"/>
      <feComposite result="composite-2"/>
      <feComposite result="composite-3"/>
      <feFlood result="flood" flood-color="#c5eeff" flood-opacity="0.78"/>
      <feComposite result="composite-4" operator="in" in2="composite-3"/>
      <feBlend result="blend" mode="screen" in2="SourceGraphic"/>
      <feBlend result="blend-2" in="SourceGraphic"/>
    </filter>
  </defs>
  <path id="Фигура_11" data-name="Фигура 11" class="cls-1" d="M469.7,1888.96a132.228,132.228,0,0,0-100.45,0,131.2,131.2,0,0,0-71.372,71.35,131.208,131.208,0,0,0,28.549,143.08,130.164,130.164,0,0,0,92.123,38.57v-3.03a127.977,127.977,0,0,1-48.242-9.78,125.985,125.985,0,0,1-41.634-27.88,128.241,128.241,0,0,1-27.888-139.91,128.489,128.489,0,0,1,167.857-69.49,127.349,127.349,0,0,1,41.633,27.88,125.855,125.855,0,0,1,27.888,41.61,127.693,127.693,0,0,1,9.781,48.22h3.04A131.779,131.779,0,0,0,469.7,1888.96h0Zm-97.145,234.9a122.043,122.043,0,0,0,93.841,0,121.725,121.725,0,0,0,66.482-66.45,121.892,121.892,0,0,0,0-93.8,121.785,121.785,0,0,0-66.482-66.46,121.581,121.581,0,0,0-46.128-9.38v2.91A119.818,119.818,0,1,1,299.6,2011.3h-2.908a121.211,121.211,0,0,0,9.384,46.11,121.716,121.716,0,0,0,66.482,66.45h0Z" transform="translate(-276 -1868)"/>
</svg>
