<svg xmlns="http://www.w3.org/2000/svg" width="217.969" height="100.062" viewBox="0 0 217.969 100.062">
  <metadata><?xpacket begin="﻿" id="W5M0MpCehiHzreSzNTczkc9d"?>
<x:xmpmeta xmlns:x="adobe:ns:meta/" x:xmptk="Adobe XMP Core 5.6-c142 79.160924, 2017/07/13-01:06:39        ">
   <rdf:RDF xmlns:rdf="http://www.w3.org/1999/02/22-rdf-syntax-ns#">
      <rdf:Description rdf:about=""/>
   </rdf:RDF>
</x:xmpmeta>
                                                                                                    
                                                                                                    
                                                                                                    
                                                                                                    
                                                                                                    
                                                                                                    
                                                                                                    
                                                                                                    
                                                                                                    
                                                                                                    
                                                                                                    
                                                                                                    
                                                                                                    
                                                                                                    
                                                                                                    
                                                                                                    
                                                                                                    
                                                                                                    
                                                                                                    
                                                                                                    
                           
<?xpacket end="w"?></metadata>
<defs>
    <style>
      .cls-1 {
        fill: #fff;
        fill-rule: evenodd;
      }
    </style>
  </defs>
  <path id="logo" class="cls-1" d="M366.452,86.086a74.938,74.938,0,0,1,12.786,2.532l7.428-7.837,6.454,2.532-0.366,10.972a67,67,0,0,1,10.838,7.113L413.7,96.937l4.87,4.823-2.557,5.666a89.817,89.817,0,0,0-11.933-2.17l-4.14-.361,1.339,3.858,2.679,8.078,0.243,0.844a59.777,59.777,0,0,0-85.116-5.3c-5.236-.844-10.473-1.808-15.952-2.653l-3.653-7.957,4.992-4.823,9.985,4.461a72.8,72.8,0,0,1,10.838-7.113l-0.365-10.972,6.453-2.532,7.55,7.837a72.663,72.663,0,0,1,12.786-2.532l3.9-10.128h6.94Zm67.339,39.667,1.1,2.652-7.914,7.476a72.981,72.981,0,0,1,2.557,12.659l10.228,3.859v3.5H418.448a57.5,57.5,0,0,0-5.48-24.717c6.941-4.461,13.882-7.475,20.823-5.425h0Zm-127.128,2.291A57.718,57.718,0,0,0,299.6,155.9H278.291v-3.5l10.35-3.859a72.981,72.981,0,0,1,2.557-12.659l-8.036-7.476,2.678-6.269,7.185,0.241c3.166,3.255,8.037,4.823,13.638,5.667h0Zm69.652,19.894c4.384,0.24,13.151,2.29,19.971,4.219,8.28,2.17,8.645,3.738,8.645,5.426-1.339-2.412-11.811-3.738-13.638-3.376-3.044,3.255-6.576,2.291-8.767,4.22-0.122-3.256,4.87-2.653,6.332-5.787-1.462-1.206-17.048-2.894-17.048-2.894-1.218-.723-2.436-4.823-1.583-6.993,4.749-.121,13.4-2.532,14.856-3.738-8.889,2.291-20.458,3.015-26.911.121,5.6,0.362,13.272-.362,15.83-1.688-8.159.482-20.945,0.964-27.155-2.532h3.044c4.993-8.681-28.494,2.411-37.992-6.872l36.166-.121c-18.631-4.581-46.029,2.412-54.188-8.56l52.483,4.22c-25.328-5.908-55.649-2.05-66.365-14.83,60.4,9.042,103.505,19.773,132.121,13.985,12.42-2.531,5.845-12.176-5.6-6.751l-2.8-8.078c14.735,1.567,19.849,4.581,20.336,9.645,6.21,1.688,11.081,3.5,13.638,6.873-21.8-10.369-40.549,23.39-61.372,23.511h0Zm-21.553-9.526c-4.627,1.809-6.575,8.32-8.037,11.454-0.974,2.291-9.985,3.859-11.69,7.355,1.462-6.028,2.923-5.426,8.768-7.716-0.975-4.823-3.9-3.858.365-9.043,0.122,1.809-.609,5.546,1.339,6.029,1.1-.121,2.193-5.185,3.775-9.767a29.668,29.668,0,0,0,5.48,1.688h0Zm59.789-21.7a1.273,1.273,0,1,1-.244,2.532c-1.948,0-1.7-2.652.244-2.532h0Zm-143.81,59.32-4.871-3.979q4.385-.181,4.384-2.17v-1.929c0-1.447-1.461-2.171-4.506-2.171H250.04V176.03h0.487a8.582,8.582,0,0,0,2.923-.362,2.038,2.038,0,0,0,1.583-2.05v-5.666h10.228v1.929h-7.793l7.184,6.149h6.089Zm23.014-7.476v-0.6c0-1.447-1.583-2.171-4.627-2.171h-11.2c-1.948,0-3.288.362-4.018,1.206a1.293,1.293,0,0,0-.365.844v6.149c0,0.723.608,1.206,1.7,1.688a10.249,10.249,0,0,0,2.679.362h11.2c2.07,0,3.532-.362,4.262-1.206a1.087,1.087,0,0,0,.365-0.844v-5.426h0Zm-5.114,5.426H278.534v-6.028h10.107v6.028h0Zm27.4,2.05V165.781h-15.83c-2.923,0-4.5.724-4.5,2.291v7.958h0.365c3.044,0,4.627-.844,4.627-2.412v-1.567h10.229v3.979h5.114Zm-5.114-6.149H300.7v-1.929h10.229v1.929Zm27.277,3.978v-5.907c0-1.447-1.462-2.171-4.506-2.171H317.987v0.242c0,1.326,1.7,1.929,4.993,1.929h10.229v6.028H323.1v-4.1h-5.115v6.149H333.7c3.044,0,4.506-.724,4.506-2.171h0Zm22.649,2.171-4.749-3.979q4.383-.181,4.383-2.17v-1.929c0-1.447-1.583-2.171-4.627-2.171H340.271V176.03h0.487a8.578,8.578,0,0,0,2.923-.362,2.174,2.174,0,0,0,1.583-2.05v-5.666h10.229v1.929h-7.915l7.184,6.149h6.089Zm21.8-2.171v-8.078H382.16c-2.922,0-4.505.6-4.505,1.809v6.39h-9.011v-6.39q0-1.809-4.384-1.809h-0.609v8.078c0,0.844.609,1.327,1.827,1.688a7,7,0,0,0,2.679.483h9.985c2.07,0,3.409-.362,4.14-1.206a1.592,1.592,0,0,0,.365-0.965h0Zm20.336,2.171V165.781H402.5c-3.045,0-4.628.724-4.628,2.05v3.738c-0.365-.241-0.974-0.724-1.826-1.206a0.119,0.119,0,0,1-.122-0.12l-5.358-3.376a8.624,8.624,0,0,0-4.749-1.086h-1.1V176.03h4.993v-5.787l2.07,1.205,5.358,3.5a8.633,8.633,0,0,0,4.749,1.085h1.1Zm20.092,0V165.781H422.71c-3.045,0-4.628.724-4.628,2.05v3.738c-0.365-.241-0.974-0.724-1.826-1.206a0.119,0.119,0,0,1-.122-0.12l-5.358-3.376a8.8,8.8,0,0,0-4.871-1.086h-0.974V176.03h4.993v-5.787l2.07,1.205,5.358,3.5a8.633,8.633,0,0,0,4.749,1.085h0.974Zm22.284-6.149H430.137v-1.929h15.222c0-1.447-1.583-2.171-4.627-2.171H429.65c-1.948,0-3.409.483-4.14,1.327a1.09,1.09,0,0,0-.365.844v5.907c0,0.724.609,1.327,1.827,1.688a6.6,6.6,0,0,0,2.678.483h11.082c3.044,0,4.627-.724,4.627-2.05H430.137v-1.929h9.62c3.775,0,5.6-.723,5.6-2.17h0Zm22.649,6.149-4.749-3.979c2.922-.121,4.262-0.844,4.262-2.17v-1.929c0-1.447-1.462-2.171-4.506-2.171H447.307V176.03h0.609a8.254,8.254,0,0,0,2.8-.362,2.152,2.152,0,0,0,1.7-2.05v-5.666h10.107v1.929h-7.793l7.185,6.149h6.088ZM335.644,161.2l-0.243.12-2.192.724H295.217c1.339-.241,2.557-0.483,3.9-0.724l0.244-.12h36.287Zm-42.741,0-0.243.12c-1.462.241-2.8,0.483-4.262,0.724H250.284c2.07-.241,4.018-0.483,5.966-0.724l0.487-.12H292.9Zm170.843,0,0.243,0.12c1.218,0.241,2.558.483,3.776,0.724H429.772c-0.73-.241-1.339-0.483-1.948-0.724a0.244,0.244,0,0,0-.243-0.12h36.165Zm-42.741,0,0.243,0.12c0.487,0.241,1.1.483,1.7,0.724H384.839V161.2h36.166Zm-42.619,0v0.12a1.7,1.7,0,0,0-.244.724H340.028c0.609-.241,1.34-0.483,1.948-0.724l0.122-.12h36.288Z" transform="translate(-250.031 -75.969)"/>
</svg>
