<svg xmlns="http://www.w3.org/2000/svg" width="111" height="66" viewBox="0 0 111 66">
  <metadata><?xpacket begin="﻿" id="W5M0MpCehiHzreSzNTczkc9d"?>
<x:xmpmeta xmlns:x="adobe:ns:meta/" x:xmptk="Adobe XMP Core 5.6-c142 79.160924, 2017/07/13-01:06:39        ">
   <rdf:RDF xmlns:rdf="http://www.w3.org/1999/02/22-rdf-syntax-ns#">
      <rdf:Description rdf:about=""/>
   </rdf:RDF>
</x:xmpmeta>
                                                                                                    
                                                                                                    
                                                                                                    
                                                                                                    
                                                                                                    
                                                                                                    
                                                                                                    
                                                                                                    
                                                                                                    
                                                                                                    
                                                                                                    
                                                                                                    
                                                                                                    
                                                                                                    
                                                                                                    
                                                                                                    
                                                                                                    
                                                                                                    
                                                                                                    
                                                                                                    
                           
<?xpacket end="w"?></metadata>
<defs>
    <style>
      .cls-1 {
        fill: #003180;
        fill-rule: evenodd;
      }
    </style>
  </defs>
  <path id="Фигура_6" data-name="Фигура 6" class="cls-1" d="M382.9,2275.29c-0.029.03-.029,0.09-0.057,0.11h0v0.03l-0.029.03v0.03h-0.029v0.03h0a1.7,1.7,0,0,1-.574.63h0v0.03h-0.029l-0.058.03h0l-0.028.03h0l-0.058.03h0c-0.028.03-.057,0.03-0.086,0.06h0l-0.029.02h0a1.384,1.384,0,0,1-.373.12h0l-0.029.03h-0.086a1.429,1.429,0,0,1-.316.06c-2.384.14-4.855,0.23-7.44,0.31-2.672.06-5.229,0.12-7.642,0.12a2.05,2.05,0,0,1-2.039-2.05c0-64.46,38.379-64.23,95.861-63.88h0.919c3.333,0.03,6.866.03,12.181,0.03a2.048,2.048,0,0,1,2.039,2.04c0,0.09-.028.17-0.028,0.26a54.386,54.386,0,0,1-17.754,37.53c-10.887,10.11-26.371,17.34-45.618,21.58a2.016,2.016,0,0,1-2.327-1.27l-4.136-9.71a8.346,8.346,0,0,0-1.609-2.68,3.036,3.036,0,0,0-2.183-.89h-8.762a2.91,2.91,0,0,0-2.183.89,8.346,8.346,0,0,0-1.609,2.68Zm29.474-7.12c17.782-4.14,32.088-10.91,42.085-20.22a50.192,50.192,0,0,0,16.316-32.8c-2.355,0-5.285,0-8.273-.03a39.269,39.269,0,0,1-10.485,23.21c-6.464,6.95-15.656,12.22-27.118,15.76a2.022,2.022,0,0,1-1.207-3.86c10.8-3.34,19.391-8.24,25.366-14.66a35.146,35.146,0,0,0,9.365-20.48c-53.6-.32-89.542-0.03-90.346,57.81q2.929,0,5.516-.09c2.011-.06,4.021-0.14,6.061-0.23l5.4-12.64a11.719,11.719,0,0,1,2.5-3.98,6.781,6.781,0,0,1,5.027-2.07h8.762a6.781,6.781,0,0,1,5.027,2.07,12.181,12.181,0,0,1,2.5,3.98Zm18.414-45.71a9.519,9.519,0,0,1,6.722,16.22,9.5,9.5,0,1,1-6.722-16.22h0Zm3.849,5.65a5.444,5.444,0,0,0-7.67,0,5.47,5.47,0,0,0-1.58,3.86,5.415,5.415,0,1,0,10.83,0,5.47,5.47,0,0,0-1.58-3.86h0Zm-45.417,17.68a2.04,2.04,0,1,1-4.079,0,16.561,16.561,0,1,1,33.122,0c0,0.49-.029.98-0.058,1.47-0.057.49-.115,0.95-0.2,1.44a2.008,2.008,0,0,1-2.327,1.67,2.062,2.062,0,0,1-1.666-2.36,6.677,6.677,0,0,0,.144-1.09,7.506,7.506,0,0,0,.057-1.13,12.5,12.5,0,1,0-24.992,0h0Z" transform="translate(-364 -2211)"/>
</svg>
