<svg xmlns="http://www.w3.org/2000/svg" width="108" height="81" viewBox="0 0 108 81">
  <metadata><?xpacket begin="﻿" id="W5M0MpCehiHzreSzNTczkc9d"?>
<x:xmpmeta xmlns:x="adobe:ns:meta/" x:xmptk="Adobe XMP Core 5.6-c142 79.160924, 2017/07/13-01:06:39        ">
   <rdf:RDF xmlns:rdf="http://www.w3.org/1999/02/22-rdf-syntax-ns#">
      <rdf:Description rdf:about=""/>
   </rdf:RDF>
</x:xmpmeta>
                                                                                                    
                                                                                                    
                                                                                                    
                                                                                                    
                                                                                                    
                                                                                                    
                                                                                                    
                                                                                                    
                                                                                                    
                                                                                                    
                                                                                                    
                                                                                                    
                                                                                                    
                                                                                                    
                                                                                                    
                                                                                                    
                                                                                                    
                                                                                                    
                                                                                                    
                                                                                                    
                           
<?xpacket end="w"?></metadata>
<defs>
    <style>
      .cls-1 {
        fill: #003180;
        fill-rule: evenodd;
      }
    </style>
  </defs>
  <path id="Фигура_4" data-name="Фигура 4" class="cls-1" d="M1143.15,1989.5a2.121,2.121,0,0,1,2.83.89,2.1,2.1,0,0,1-.89,2.82l-27.99,14.54a2.4,2.4,0,0,1-.99.24h-27.99a2.092,2.092,0,0,1-2.12-2.07v-66.58a2.094,2.094,0,0,1,2.12-2.08h27.99a2.113,2.113,0,0,1,1.14.33l27.36,14.22h1.64a15.515,15.515,0,0,1,5.14-5.24,15.052,15.052,0,0,1,6.16-2.22v-13.16h-0.33a2.09,2.09,0,1,1,0-4.18h4.9a2.09,2.09,0,1,1,0,4.18h-0.33v13.16a15.008,15.008,0,0,1,6.15,2.22,15.7,15.7,0,0,1,5.14,5.24h2.15a2.068,2.068,0,0,1,2.09,2.08v12.89h14.58a2.1,2.1,0,0,1,2.09,2.1v7.5a2.111,2.111,0,0,1-2.09,2.1h-14.58v12.89a2.066,2.066,0,0,1-2.09,2.07h-15.77a2.085,2.085,0,1,1,0-4.17h13.65v-33.28h-1.31a2.07,2.07,0,0,1-1.92-1.27,11.382,11.382,0,0,0-4.18-4.63,11.5,11.5,0,0,0-12.07,0,12.652,12.652,0,0,0-2.12,1.72h7.32a2.068,2.068,0,0,1,2.09,2.08,2.091,2.091,0,0,1-2.09,2.1H1144.1a2.123,2.123,0,0,1-.95-0.24l-27.55-14.31h-25.39v62.37h25.39Zm46.63-18.52h-12.46v3.29h12.46v-3.29Zm-37.52-7.82h2.96a5.955,5.955,0,0,0,4.21,1.72l2.12,2.1a5.928,5.928,0,0,0,1.73,4.18v2.93a2.136,2.136,0,0,1-1.28,1.93,2.1,2.1,0,0,1-.45,2.25l-2.12,2.11a5.955,5.955,0,0,0-4.21,1.72h-2.96a5.955,5.955,0,0,0-4.21-1.72l-2.12-2.11a2.1,2.1,0,0,1-.45-2.25,2.129,2.129,0,0,1-1.29-1.93v-2.93a5.882,5.882,0,0,0,1.74-4.18l2.12-2.1a2.152,2.152,0,0,1,2.27-.44,2.123,2.123,0,0,1,1.94-1.28h0Zm2.51,6.46a2.49,2.49,0,0,1-1.05-.56,2.4,2.4,0,0,1-.89.53,0.927,0.927,0,0,0-.24.06l-0.27.12a1.126,1.126,0,0,0-1.41,1.33,1.608,1.608,0,0,1-.15.33v-0.03l-0.05.21a2.335,2.335,0,0,1-.57,1.03,2.291,2.291,0,0,1,.54.89,0.927,0.927,0,0,0,.06.24l0.02,0.06a1.769,1.769,0,0,1,.12.24,1.992,1.992,0,0,1,.3,1.09,2.076,2.076,0,0,1,1.02.27c0.09,0.03.18,0.09,0.33,0.15h-0.03l0.21,0.06a2.16,2.16,0,0,1,1.04.56,2.134,2.134,0,0,1,.9-0.53,0.706,0.706,0,0,0,.24-0.06l0.27-.12a1.957,1.957,0,0,1,1.13-.33,2.068,2.068,0,0,1,.27-1.01l0.12-.23,0.09-.27a2.425,2.425,0,0,1,.57-1.04,2.154,2.154,0,0,1-.54-0.89,1.808,1.808,0,0,0-.09-0.29,1.781,1.781,0,0,0-.12-0.24,1.087,1.087,0,0,0-1.31-1.36,2.775,2.775,0,0,1-.3-0.15h0Zm-38.87-4.38a7.386,7.386,0,0,1,5.23,2.16l0.03,0.03a7.321,7.321,0,0,1,2.18,5.21,7.4,7.4,0,0,1-2.18,5.22l-0.03-.03a7.33,7.33,0,0,1-5.23,2.19,7.535,7.535,0,0,1-5.29-2.16,7.4,7.4,0,0,1-2.18-5.22,7.226,7.226,0,0,1,2.21-5.21l-0.03-.03a7.493,7.493,0,0,1,5.29-2.16h0Zm2.27,5.12a3.228,3.228,0,0,0-2.27-.92,3.376,3.376,0,0,0-2.3.92h0a3.248,3.248,0,0,0,0,4.53,3.33,3.33,0,0,0,2.3.92,3.186,3.186,0,0,0,2.27-.92h0a3.223,3.223,0,0,0,0-4.53h0Zm-6.03-18.28h7.5a2.091,2.091,0,0,1,2.09,2.07v4.36l0.09,0.03,3.1-3.05a2.106,2.106,0,0,1,2.99,0l5.26,5.24a2.018,2.018,0,0,1,0,2.93l-3.08,3.09,0.03,0.09h4.39a2.06,2.06,0,0,1,2.09,2.07v7.44a2.066,2.066,0,0,1-2.09,2.07h-4.39s-0.03.06,0,.06l-0.03.03,3.08,3.08a2.018,2.018,0,0,1,0,2.93l-5.26,5.25a2.106,2.106,0,0,1-2.99,0l-3.1-3.05-0.09.03v4.35a2.074,2.074,0,0,1-2.09,2.08h-7.5a2.068,2.068,0,0,1-2.09-2.08v-4.35s-0.06-.03-0.06,0l-0.03-.03-3.11,3.05a2.071,2.071,0,0,1-2.96,0l-5.29-5.25a2.035,2.035,0,0,1,0-2.93l3.08-3.08-0.03-.09h-4.39a2.085,2.085,0,0,1-2.09-2.07v-7.44a2.078,2.078,0,0,1,2.09-2.07h4.39s0.03-.06,0-0.06l0.03-.03-3.08-3.09a2.035,2.035,0,0,1,0-2.93l5.29-5.24a2.071,2.071,0,0,1,2.96,0l3.11,3.05,0.09-.03v-4.36a2.085,2.085,0,0,1,2.09-2.07h0Zm5.37,4.18h-3.25v3.73h0a2.092,2.092,0,0,1-1.53,1.99,6.364,6.364,0,0,0-1.04.35l-0.09.03c-0.33.15-.66,0.3-0.99,0.48a2.112,2.112,0,0,1-2.6-.3l-2.65-2.64-2.3,2.28,2.65,2.64a2.087,2.087,0,0,1,.36,2.49,11.806,11.806,0,0,0-.53,1.07h0c-0.12.32-.24,0.65-0.33,0.97a2.112,2.112,0,0,1-2.06,1.66h-3.77v3.23h3.77a2.109,2.109,0,0,1,2,1.51,6.743,6.743,0,0,0,.36,1.04l0.03,0.09c0.14,0.33.29,0.65,0.47,0.98a2.057,2.057,0,0,1-.3,2.58l-2.65,2.63,2.3,2.28,2.65-2.63a2.15,2.15,0,0,1,2.51-.36c0.36,0.21.72,0.36,1.08,0.54h0c0.33,0.11.66,0.23,0.99,0.32a2.109,2.109,0,0,1,1.67,2.05V1989h3.25v-3.73h0a2.092,2.092,0,0,1,1.53-1.99c0.39-.12.78-0.24,1.13-0.38,0.33-.15.66-0.3,0.99-0.48a2.11,2.11,0,0,1,2.6.3l2.66,2.63,2.3-2.28-2.66-2.63a2.09,2.09,0,0,1-.36-2.49c0.21-.36.36-0.71,0.54-1.07h0c0.12-.33.24-0.65,0.33-0.98a2.112,2.112,0,0,1,2.09-1.66h3.73v-3.23h-3.73a2.1,2.1,0,0,1-2.03-1.51,7.016,7.016,0,0,0-.36-1.03l-0.03-.09c-0.15-.33-0.3-0.66-0.48-0.98a2.056,2.056,0,0,1,.3-2.58l2.66-2.64-2.3-2.28-2.66,2.64a2.13,2.13,0,0,1-2.51.35c-0.36-.2-0.72-0.35-1.08-0.53a8.621,8.621,0,0,0-.98-0.32,2.108,2.108,0,0,1-1.68-2.05v-3.73Z" transform="translate(-1086 -1927)"/>
</svg>
