<svg xmlns="http://www.w3.org/2000/svg" width="87" height="63.06" viewBox="0 0 87 63.06">
  <metadata><?xpacket begin="﻿" id="W5M0MpCehiHzreSzNTczkc9d"?>
<x:xmpmeta xmlns:x="adobe:ns:meta/" x:xmptk="Adobe XMP Core 5.6-c142 79.160924, 2017/07/13-01:06:39        ">
   <rdf:RDF xmlns:rdf="http://www.w3.org/1999/02/22-rdf-syntax-ns#">
      <rdf:Description rdf:about=""/>
   </rdf:RDF>
</x:xmpmeta>
                                                                                                    
                                                                                                    
                                                                                                    
                                                                                                    
                                                                                                    
                                                                                                    
                                                                                                    
                                                                                                    
                                                                                                    
                                                                                                    
                                                                                                    
                                                                                                    
                                                                                                    
                                                                                                    
                                                                                                    
                                                                                                    
                                                                                                    
                                                                                                    
                                                                                                    
                                                                                                    
                           
<?xpacket end="w"?></metadata>
<defs>
    <style>
      .cls-1 {
        fill: #828282;
        fill-rule: evenodd;
      }
    </style>
  </defs>
  <path id="_2" data-name="2" class="cls-1" d="M735.13,2764.32c13.6,4.97,22.868,14.9,22.868,28.14a23.257,23.257,0,0,1-4.634,14.15c-0.747,1.2-1.345,2.25-3.736,2.25H703.893c-10.911-.6-11.06-9.48-6.576-16.7,2.242-3.61,14.647-20.62,18.981-25.88,0.747-1.06-.3-1.81-1.644-1.81-20.924,0-37.215,10.23-37.215,27.99,0,15.5,16.291,27.99,37.215,27.99,11.21,0,21.074-3.61,27.8-9.33h7.175c-7.922,7.82-20.775,12.94-35.124,12.94-24.062,0-43.641-12.34-43.492-31.6,0-18.96,19.43-31.45,43.492-31.45a67.512,67.512,0,0,1,14.947,1.66c3.288,1.05.9,3.76,0,4.96-3.288,3.61-17.039,22.42-19.58,26.94-1.793,2.4-3.587,7.22,1.2,7.22h36.468c1.943,0,2.84-1.35,3.438-3.16a27.955,27.955,0,0,0,.9-6.17c0-12.19-7.623-20.62-18.982-24.83Z" transform="translate(-671 -2761)"/>
</svg>
