<svg xmlns="http://www.w3.org/2000/svg" width="96.032" height="60.97" viewBox="0 0 96.032 60.97">
  <metadata><?xpacket begin="﻿" id="W5M0MpCehiHzreSzNTczkc9d"?>
<x:xmpmeta xmlns:x="adobe:ns:meta/" x:xmptk="Adobe XMP Core 5.6-c142 79.160924, 2017/07/13-01:06:39        ">
   <rdf:RDF xmlns:rdf="http://www.w3.org/1999/02/22-rdf-syntax-ns#">
      <rdf:Description rdf:about=""/>
   </rdf:RDF>
</x:xmpmeta>
                                                                                                    
                                                                                                    
                                                                                                    
                                                                                                    
                                                                                                    
                                                                                                    
                                                                                                    
                                                                                                    
                                                                                                    
                                                                                                    
                                                                                                    
                                                                                                    
                                                                                                    
                                                                                                    
                                                                                                    
                                                                                                    
                                                                                                    
                                                                                                    
                                                                                                    
                                                                                                    
                           
<?xpacket end="w"?></metadata>
<defs>
    <style>
      .cls-1 {
        fill: #828282;
        fill-rule: evenodd;
      }
    </style>
  </defs>
  <path id="_1" data-name="1" class="cls-1" d="M467.458,2790.86c0.433,9.3,3.61,16.38,7.509,16.38s7.077-7.08,7.51-16.38a63.353,63.353,0,0,1-7.51.44v-7.82a55.856,55.856,0,0,0,7.221-.3c-0.867-7.52-3.755-12.98-7.221-12.98-3.321,0-6.21,5.46-7.22,12.98,2.31,0.15,4.765.3,7.22,0.3v7.82a65.2,65.2,0,0,1-7.509-.44h0Zm-4.766-8.41c1.155-8.71,4.188-15.65,8.087-18.6a49.879,49.879,0,0,0-17.475,3.84c-3.754,1.77-5.921,3.84-5.921,6.05,0,3.84,6.21,7.08,15.309,8.71h0Zm16.608-18.6c3.9,2.95,6.932,9.89,8.087,18.6,9.1-1.48,15.308-4.87,15.308-8.71,0-2.36-2.455-4.58-6.5-6.2a54.505,54.505,0,0,0-16.9-3.69h0Zm8.52,26.27v0.44c0,12.55-3.61,23.17-8.809,26.86,20.8-1.33,36.971-12.84,36.971-26.86a20,20,0,0,0-4.477-12.25c-4.766,5.91-13.575,9.89-23.685,11.81h0Zm-16.9,27.3c-5.055-3.69-8.81-14.31-8.81-26.86v-0.44c-10.254-1.92-19.352-6.05-23.4-12.1a20.278,20.278,0,0,0-4.765,12.54c0,14.02,16.319,25.39,36.971,26.86h0Zm4.043,3.54c-25.562,0-47.946-13.57-47.946-30.4s21.518-30.55,47.946-30.55c26.573,0,48.092,13.73,48.092,30.55,0,16.68-21.663,30.4-48.092,30.4v0Z" transform="translate(-427.031 -2760)"/>
</svg>
