<svg xmlns="http://www.w3.org/2000/svg" width="106" height="66" viewBox="0 0 106 66">
  <metadata><?xpacket begin="﻿" id="W5M0MpCehiHzreSzNTczkc9d"?>
<x:xmpmeta xmlns:x="adobe:ns:meta/" x:xmptk="Adobe XMP Core 5.6-c142 79.160924, 2017/07/13-01:06:39        ">
   <rdf:RDF xmlns:rdf="http://www.w3.org/1999/02/22-rdf-syntax-ns#">
      <rdf:Description rdf:about=""/>
   </rdf:RDF>
</x:xmpmeta>
                                                                                                    
                                                                                                    
                                                                                                    
                                                                                                    
                                                                                                    
                                                                                                    
                                                                                                    
                                                                                                    
                                                                                                    
                                                                                                    
                                                                                                    
                                                                                                    
                                                                                                    
                                                                                                    
                                                                                                    
                                                                                                    
                                                                                                    
                                                                                                    
                                                                                                    
                                                                                                    
                           
<?xpacket end="w"?></metadata>
<defs>
    <style>
      .cls-1 {
        fill: #003180;
        fill-rule: evenodd;
      }
    </style>
  </defs>
  <path id="Фигура_9" data-name="Фигура 9" class="cls-1" d="M1503.81,2252.14a1.852,1.852,0,0,1,1.45,2.18,1.816,1.816,0,0,1-2.16,1.44,31.162,31.162,0,0,0-15.04.71,30.774,30.774,0,0,0-12.86,7.68,1.835,1.835,0,0,1-2.63,0l-28.03-27.9a1.824,1.824,0,0,1,0-2.62,74.432,74.432,0,0,1,104.92,0,1.878,1.878,0,0,1,0,2.62l-28.06,27.9a1.8,1.8,0,0,1-2.6,0,1.823,1.823,0,0,1,0-2.62l26.68-26.56a70.63,70.63,0,0,0-96.99,0l25.42,25.3a34.53,34.53,0,0,1,13.07-7.34,35.128,35.128,0,0,1,16.83-.79h0Zm5.13,6.24a1.746,1.746,0,0,1-1.05-.42,1.839,1.839,0,0,1-.26-2.59l22.39-27.06a1.846,1.846,0,0,1,2.84,2.36l-9.72,11.74a1.908,1.908,0,0,1,1.06.42,1.833,1.833,0,0,1,.23,2.6l-21.23,25.7a4.692,4.692,0,0,1-.84,5.48v0.03a4.794,4.794,0,0,1-6.69,0v-0.03a4.708,4.708,0,0,1,0-6.64,1.593,1.593,0,0,0,.13-0.13,4.8,4.8,0,0,1,3.21-1.26,4.5,4.5,0,0,1,1.32.21Z" transform="translate(-1444 -2212)"/>
</svg>
