<svg xmlns="http://www.w3.org/2000/svg" width="70.969" height="66.97" viewBox="0 0 70.969 66.97">
  <metadata><?xpacket begin="﻿" id="W5M0MpCehiHzreSzNTczkc9d"?>
<x:xmpmeta xmlns:x="adobe:ns:meta/" x:xmptk="Adobe XMP Core 5.6-c142 79.160924, 2017/07/13-01:06:39        ">
   <rdf:RDF xmlns:rdf="http://www.w3.org/1999/02/22-rdf-syntax-ns#">
      <rdf:Description rdf:about=""/>
   </rdf:RDF>
</x:xmpmeta>
                                                                                                    
                                                                                                    
                                                                                                    
                                                                                                    
                                                                                                    
                                                                                                    
                                                                                                    
                                                                                                    
                                                                                                    
                                                                                                    
                                                                                                    
                                                                                                    
                                                                                                    
                                                                                                    
                                                                                                    
                                                                                                    
                                                                                                    
                                                                                                    
                                                                                                    
                                                                                                    
                           
<?xpacket end="w"?></metadata>
<defs>
    <style>
      .cls-1 {
        fill: #828282;
        fill-rule: evenodd;
      }
    </style>
  </defs>
  <path id="_3" data-name="3" class="cls-1" d="M983.839,2804.01a27.834,27.834,0,0,1-4.181,7.9,20.968,20.968,0,0,1-6.341,6.03l-4.452-28.53-9.309-26.65a22.486,22.486,0,0,1,9.714,2.01,27.27,27.27,0,0,1,8.364,5.76,30.14,30.14,0,0,1,5.666,8.83,31.275,31.275,0,0,1,1.889,10.59c0,4.41.134,9.5-1.35,14.06h0Zm-24.418,18.35c-4.317-.14-8.768.4-13.355-0.67a30.31,30.31,0,0,1-5.4-2.01l12.142-26.65a3.6,3.6,0,0,1,2.833-2.55c1.214-.27,2.833.4,3.643,2.55l12.006,26.11a24.78,24.78,0,0,1-11.872,3.22h0Zm-20.775-3.75a24.586,24.586,0,0,1-6.746-6.16c-5.261-6.43-6.475-14.74-5.935-22.5a28.423,28.423,0,0,1,2.023-10.59,27.628,27.628,0,0,1,5.666-8.83,24.661,24.661,0,0,1,18.482-7.77l-9.173,26.65Zm16.054-55.58a0.792,0.792,0,0,1,.539-0.81c0.809,0,1.484-.4,2.024.54,0.135,7.36.135,14.46,0.135,21.69a1.045,1.045,0,0,1-.675.81c-0.539,0-1.484.4-2.023-.54-0.135-7.23,0-14.6,0-21.69h0Zm34,14.86a31.169,31.169,0,0,0-6.61-9.91,35.375,35.375,0,0,0-9.983-6.7,33.424,33.424,0,0,0-11.872-2.27h-9.174a31.8,31.8,0,0,0-11.872,2.27,29.1,29.1,0,0,0-9.983,6.7,27.612,27.612,0,0,0-6.745,9.91,28.849,28.849,0,0,0-2.429,11.79v5.76a28.673,28.673,0,0,0,2.429,11.65,29.279,29.279,0,0,0,6.745,10.04,26.551,26.551,0,0,0,9.983,6.43,31.887,31.887,0,0,0,11.872,2.41h9.174a33.611,33.611,0,0,0,11.872-2.41,31.614,31.614,0,0,0,9.983-6.43,33.277,33.277,0,0,0,6.61-10.04,30.974,30.974,0,0,0,2.294-11.65v-5.76a31.153,31.153,0,0,0-2.294-11.79h0Z" transform="translate(-920.031 -2759)"/>
</svg>
