<svg xmlns="http://www.w3.org/2000/svg" width="71" height="74" viewBox="0 0 71 74">
  <metadata><?xpacket begin="﻿" id="W5M0MpCehiHzreSzNTczkc9d"?>
<x:xmpmeta xmlns:x="adobe:ns:meta/" x:xmptk="Adobe XMP Core 5.6-c142 79.160924, 2017/07/13-01:06:39        ">
   <rdf:RDF xmlns:rdf="http://www.w3.org/1999/02/22-rdf-syntax-ns#">
      <rdf:Description rdf:about=""/>
   </rdf:RDF>
</x:xmpmeta>
                                                                                                    
                                                                                                    
                                                                                                    
                                                                                                    
                                                                                                    
                                                                                                    
                                                                                                    
                                                                                                    
                                                                                                    
                                                                                                    
                                                                                                    
                                                                                                    
                                                                                                    
                                                                                                    
                                                                                                    
                                                                                                    
                                                                                                    
                                                                                                    
                                                                                                    
                                                                                                    
                           
<?xpacket end="w"?></metadata>
<defs>
    <style>
      .cls-1 {
        fill: #003180;
        fill-rule: evenodd;
      }
    </style>
  </defs>
  <path id="Фигура_5" data-name="Фигура 5" class="cls-1" d="M1491.31,1931c7.68,0,14.58,4.22,19.52,11.06,4.82,6.68,7.79,15.86,7.79,25.92,0,10.1-2.97,19.25-7.79,25.93a29.869,29.869,0,0,1-7.08,7.07h3.91c6.31,0,12.07-3.59,16.27-9.41,4.36-6.02,7.05-14.35,7.05-23.59a42.2,42.2,0,0,0-5.14-20.58c-3.17-5.59-7.59-9.73-12.76-11.5a1.97,1.97,0,0,1-1.25-2.53,2,2,0,0,1,2.54-1.26c6.13,2.08,11.33,6.9,14.98,13.32a46.077,46.077,0,0,1,5.65,22.55c0,10.1-3,19.25-7.79,25.93-4.97,6.84-11.87,11.09-19.55,11.09h-16.35c-7.68,0-14.55-4.25-19.52-11.09-4.82-6.68-7.79-15.83-7.79-25.93,0-10.06,2.97-19.24,7.79-25.92,4.97-6.84,11.84-11.06,19.52-11.06h0Zm2.88,57.09a24.1,24.1,0,0,1-4.54-7.84,35.928,35.928,0,0,1-2.08-12.27,38.151,38.151,0,0,1,.26-4.39,39.532,39.532,0,0,1,.74-4.27,2.014,2.014,0,0,1,2.43-1.49,1.977,1.977,0,0,1,1.48,2.4,35.042,35.042,0,0,0-.66,3.82,36.1,36.1,0,0,0-.22,3.93,32.187,32.187,0,0,0,1.82,10.9,19.675,19.675,0,0,0,4.03,6.84,15.767,15.767,0,0,0,2.05-2.71,31.564,31.564,0,0,0,0-30.03c-2.17-3.53-5.08-5.7-8.19-5.7s-6.02,2.17-8.19,5.7a31.564,31.564,0,0,0,0,30.03c2.17,3.54,5.08,5.71,8.19,5.71a7.254,7.254,0,0,0,2.88-.63h0Zm-2.88-44.83c4.62,0,8.73,2.91,11.61,7.61a35.526,35.526,0,0,1,0,34.25c-2.88,4.71-6.99,7.62-11.61,7.62s-8.7-2.91-11.62-7.62a35.6,35.6,0,0,1,0-34.25c2.92-4.7,7-7.61,11.62-7.61h0Zm16.27,1.17c-4.2-5.82-9.96-9.41-16.27-9.41s-12.07,3.59-16.27,9.41c-4.33,5.99-7.02,14.32-7.02,23.55s2.69,17.57,7.02,23.59c4.2,5.82,9.96,9.41,16.27,9.41s12.07-3.59,16.27-9.41c4.33-6.02,7.02-14.35,7.02-23.59s-2.69-17.56-7.02-23.55h0Z" transform="translate(-1464 -1931)"/>
</svg>
