<svg xmlns="http://www.w3.org/2000/svg" width="77" height="77" viewBox="0 0 77 77">
  <metadata><?xpacket begin="﻿" id="W5M0MpCehiHzreSzNTczkc9d"?>
<x:xmpmeta xmlns:x="adobe:ns:meta/" x:xmptk="Adobe XMP Core 5.6-c142 79.160924, 2017/07/13-01:06:39        ">
   <rdf:RDF xmlns:rdf="http://www.w3.org/1999/02/22-rdf-syntax-ns#">
      <rdf:Description rdf:about=""/>
   </rdf:RDF>
</x:xmpmeta>
                                                                                                    
                                                                                                    
                                                                                                    
                                                                                                    
                                                                                                    
                                                                                                    
                                                                                                    
                                                                                                    
                                                                                                    
                                                                                                    
                                                                                                    
                                                                                                    
                                                                                                    
                                                                                                    
                                                                                                    
                                                                                                    
                                                                                                    
                                                                                                    
                                                                                                    
                                                                                                    
                           
<?xpacket end="w"?></metadata>
<defs>
    <style>
      .cls-1 {
        fill: #003180;
        fill-rule: evenodd;
      }
    </style>
  </defs>
  <path id="Фигура_8" data-name="Фигура 8" class="cls-1" d="M1111.26,2249.6a31.695,31.695,0,1,0,45.79-30.04,1.754,1.754,0,0,1-.76-2.31,1.731,1.731,0,0,1,2.29-.76,35.1,35.1,0,1,1-50.75,33.11h-5.1a1.712,1.712,0,0,1-1.73-1.7,41.892,41.892,0,0,1,41.89-41.89,1.712,1.712,0,0,1,1.7,1.73v22.01a1.694,1.694,0,0,1-1.7,1.71,16.422,16.422,0,0,0-16.44,16.44,1.694,1.694,0,0,1-1.71,1.7h-13.48Zm31.63-8.02a6.31,6.31,0,1,0,0,12.62,6.316,6.316,0,0,0,6.3-6.3,6.3,6.3,0,0,0-6.3-6.32h0Zm-6.91-.59a9.8,9.8,0,1,1-2.84,6.91,9.818,9.818,0,0,1,2.84-6.91h0Zm5.18-31.5a38.4,38.4,0,0,0-36.68,36.68h18.61a19.848,19.848,0,0,1,18.07-18.07v-18.61Z" transform="translate(-1101 -2206)"/>
</svg>
