<svg xmlns="http://www.w3.org/2000/svg" width="85" height="90" viewBox="0 0 85 90">
  <metadata><?xpacket begin="﻿" id="W5M0MpCehiHzreSzNTczkc9d"?>
<x:xmpmeta xmlns:x="adobe:ns:meta/" x:xmptk="Adobe XMP Core 5.6-c142 79.160924, 2017/07/13-01:06:39        ">
   <rdf:RDF xmlns:rdf="http://www.w3.org/1999/02/22-rdf-syntax-ns#">
      <rdf:Description rdf:about=""/>
   </rdf:RDF>
</x:xmpmeta>
                                                                                                    
                                                                                                    
                                                                                                    
                                                                                                    
                                                                                                    
                                                                                                    
                                                                                                    
                                                                                                    
                                                                                                    
                                                                                                    
                                                                                                    
                                                                                                    
                                                                                                    
                                                                                                    
                                                                                                    
                                                                                                    
                                                                                                    
                                                                                                    
                                                                                                    
                                                                                                    
                           
<?xpacket end="w"?></metadata>
<defs>
    <style>
      .cls-1 {
        fill: #003180;
        fill-rule: evenodd;
      }
    </style>
  </defs>
  <path id="Фигура_3" data-name="Фигура 3" class="cls-1" d="M752.361,1936.09h16.892a12.311,12.311,0,0,1,8.731,3.65,12.459,12.459,0,0,1,3.631,8.8v18.85h3.93a2.5,2.5,0,0,1,.27-1.3l7.921-13.78h-0.03a2.169,2.169,0,0,1-.78-2.9h0l15.092-26.35a2.106,2.106,0,0,1,2.881-.76l7.381,4.3a2.1,2.1,0,0,1,.78,2.9l-0.06.12-15.032,26.2a2.09,2.09,0,0,1-2.881.78l-0.03-.03-3.66,6.41h11.521a2.149,2.149,0,0,1,2.131,2.15v4.29a2.115,2.115,0,0,1-2.131,2.11H793.166a6.508,6.508,0,0,1,.51,2.51,6.44,6.44,0,0,1-.99,3.45H822.87a2.141,2.141,0,0,1,2.131,2.14v4.29a2.124,2.124,0,0,1-2.131,2.12h-33a2.123,2.123,0,0,1-2.13-2.12v-3.26c-0.21,0-.45.03-0.66,0.03h-5.461v18.86a12.436,12.436,0,0,1-3.631,8.79,12.156,12.156,0,0,1-8.731,3.66H752.361a12.262,12.262,0,0,1-8.731-3.66,12.568,12.568,0,0,1-3.631-8.79v-51.01a12.592,12.592,0,0,1,3.631-8.8,12.42,12.42,0,0,1,8.731-3.65h0Zm42.606,31.15-0.03.03h11.881v-0.03H794.967Zm-2.491-4.26h0.06l4.891-8.52h-0.06Zm-0.51,18.77v0.03h28.8v-0.03h-28.8Zm5.7-32.07,3.69,2.15,0.031,0.03,12.961-22.64-3.72-2.17-12.992,22.63h0.03Zm-16.052,21.97v4.78h5.461a2.278,2.278,0,0,0,1.65-.7,2.343,2.343,0,0,0,0-3.38,2.318,2.318,0,0,0-1.65-.7h-5.461Zm-4.231,6.92v-30.03a8.16,8.16,0,0,0-8.131-8.19H752.361a8.094,8.094,0,0,0-5.731,2.41,8.224,8.224,0,0,0-2.4,5.78v51.01a8.219,8.219,0,0,0,2.4,5.77,8.1,8.1,0,0,0,5.731,2.42h0.87v-28.56a2.131,2.131,0,0,1,4.261,0v28.56h6.661v-17.89a2.149,2.149,0,0,1,2.13-2.15,2.124,2.124,0,0,1,2.1,2.15v17.89h0.87a8.177,8.177,0,0,0,8.131-8.19v-20.98Z" transform="translate(-740 -1922)"/>
</svg>
