<svg xmlns="http://www.w3.org/2000/svg" width="115.09" height="56.03" viewBox="0 0 115.09 56.03">
  <metadata><?xpacket begin="﻿" id="W5M0MpCehiHzreSzNTczkc9d"?>
<x:xmpmeta xmlns:x="adobe:ns:meta/" x:xmptk="Adobe XMP Core 5.6-c142 79.160924, 2017/07/13-01:06:39        ">
   <rdf:RDF xmlns:rdf="http://www.w3.org/1999/02/22-rdf-syntax-ns#">
      <rdf:Description rdf:about=""/>
   </rdf:RDF>
</x:xmpmeta>
                                                                                                    
                                                                                                    
                                                                                                    
                                                                                                    
                                                                                                    
                                                                                                    
                                                                                                    
                                                                                                    
                                                                                                    
                                                                                                    
                                                                                                    
                                                                                                    
                                                                                                    
                                                                                                    
                                                                                                    
                                                                                                    
                                                                                                    
                                                                                                    
                                                                                                    
                                                                                                    
                           
<?xpacket end="w"?></metadata>
<defs>
    <style>
      .cls-1 {
        fill: #828282;
        fill-rule: evenodd;
      }
    </style>
  </defs>
  <path id="_5" data-name="5" class="cls-1" d="M1377.95,2788.12c0-15.53,25.63-28.09,57.47-28.09s57.62,12.56,57.62,28.09c0,15.37-25.77,27.94-57.62,27.94s-57.47-12.57-57.47-27.94h0Zm69.77,13.45h7.4l6.08-17.45,5.92,17.45h7.26l-8.89-26.76h-10.81v1.92h1.48l-8.44,24.84h0Zm-17.04-26.76h9.63v26.76h-7.4v-24.84h-2.23v-1.92h0Zm-31.69,0h9.03v9.91l7.85-9.91h8.3l-8.74,12.71,10.07,14.05h-8.59l-8.89-11.24v11.24h-7.55v-24.84h-1.48v-1.92h0Zm-17.04,13.31h0c0,12.27,23.85,22.03,53.47,22.03s53.62-9.76,53.62-22.03c0-12.13-23.99-22.03-53.62-22.03s-53.47,9.9-53.47,22.03h0Z" transform="translate(-1377.94 -2760.03)"/>
</svg>
