<svg xmlns="http://www.w3.org/2000/svg" width="114.97" height="58" viewBox="0 0 114.97 58">
  <metadata><?xpacket begin="﻿" id="W5M0MpCehiHzreSzNTczkc9d"?>
<x:xmpmeta xmlns:x="adobe:ns:meta/" x:xmptk="Adobe XMP Core 5.6-c142 79.160924, 2017/07/13-01:06:39        ">
   <rdf:RDF xmlns:rdf="http://www.w3.org/1999/02/22-rdf-syntax-ns#">
      <rdf:Description rdf:about=""/>
   </rdf:RDF>
</x:xmpmeta>
                                                                                                    
                                                                                                    
                                                                                                    
                                                                                                    
                                                                                                    
                                                                                                    
                                                                                                    
                                                                                                    
                                                                                                    
                                                                                                    
                                                                                                    
                                                                                                    
                                                                                                    
                                                                                                    
                                                                                                    
                                                                                                    
                                                                                                    
                                                                                                    
                                                                                                    
                                                                                                    
                           
<?xpacket end="w"?></metadata>
<defs>
    <style>
      .cls-1 {
        fill: #828282;
        fill-rule: evenodd;
      }
    </style>
  </defs>
  <path id="_4" data-name="4" class="cls-1" d="M1194.56,2813.26l-14.32-1.07-14.78-2.93c-1.87-.61-2.33-1.38-0.93-2.46a24.416,24.416,0,0,1,5.44-3.69,147.207,147.207,0,0,1,13.7-6.31,114.846,114.846,0,0,1,13.38-4l7.31,0.47c2.96,1.53,3.27,5.23.78,10.61-2.96,6-6.38,9.23-10.58,9.38h0Zm40.14-38.61,2.02-.31c7,4.46,10.43,9.23,10.43,14.62,0,4.92-2.96,9.54-8.87,13.54-5.91,3.84-13.38,6.92-23.03,8.76h-2.02c-0.62,0-.47-0.61,0-1.07,4.82-5.23,9.8-12.62,15.09-22.31Zm-40.3-10,14.63,0.92a87.12,87.12,0,0,1,14.47,3.24c1.86,0.46,2.02,1.07.93,2.15q-5.835,5.07-19.14,10.15a128.193,128.193,0,0,1-13.38,3.85l-7.47-.46c-2.95-1.54-2.95-4.93-.46-10.62,2.95-6,6.38-9.23,10.42-9.23h0Zm-43.72,10.77c5.76-4,13.38-6.92,22.72-8.92h2.33c0.47,0.15.47,0.61-.31,1.38-4.51,5.08-9.49,12.31-14.78,22l-6.38,13.23-2.02.31c-7.01-4.31-10.43-9.23-10.43-14.46,0-4.92,2.96-9.39,8.87-13.54h0Zm3.27-6.92a35.013,35.013,0,0,0-12.29,9.23,16.372,16.372,0,0,0-4.67,11.23q0,5.76,4.67,11.54a38.816,38.816,0,0,0,12.29,8.92c11.04,5.69,24.74,8.61,40.45,8.61s29.41-2.92,40.77-8.61c5.13-2.62,9.33-5.54,12.29-8.92,2.95-3.85,4.51-7.7,4.51-11.54a16.985,16.985,0,0,0-4.51-11.23,36.65,36.65,0,0,0-12.29-9.23c-11.36-5.85-25.05-8.46-40.77-8.46s-29.41,2.61-40.45,8.46h0Z" transform="translate(-1137 -2760.03)"/>
</svg>
