<svg xmlns="http://www.w3.org/2000/svg" width="106.031" height="85" viewBox="0 0 106.031 85">
  <metadata><?xpacket begin="﻿" id="W5M0MpCehiHzreSzNTczkc9d"?>
<x:xmpmeta xmlns:x="adobe:ns:meta/" x:xmptk="Adobe XMP Core 5.6-c142 79.160924, 2017/07/13-01:06:39        ">
   <rdf:RDF xmlns:rdf="http://www.w3.org/1999/02/22-rdf-syntax-ns#">
      <rdf:Description rdf:about=""/>
   </rdf:RDF>
</x:xmpmeta>
                                                                                                    
                                                                                                    
                                                                                                    
                                                                                                    
                                                                                                    
                                                                                                    
                                                                                                    
                                                                                                    
                                                                                                    
                                                                                                    
                                                                                                    
                                                                                                    
                                                                                                    
                                                                                                    
                                                                                                    
                                                                                                    
                                                                                                    
                                                                                                    
                                                                                                    
                                                                                                    
                           
<?xpacket end="w"?></metadata>
<defs>
    <style>
      .cls-1 {
        fill: #003180;
        fill-rule: evenodd;
      }
    </style>
  </defs>
  <path id="Фигура_2" data-name="Фигура 2" class="cls-1" d="M402.586,2006.74a2.148,2.148,0,0,1-.761,2.94,2.1,2.1,0,0,1-2.922-.79l-8.067-14a2.414,2.414,0,0,1-.243-1.51,2.191,2.191,0,0,1-1.157-.94h0l-4.17-7.3a2.194,2.194,0,0,1-.274-1.5,2,2,0,0,1-1.126-.95l-0.061-.12-4.14-7.17a2.208,2.208,0,0,1-.243-1.5,2.165,2.165,0,0,1-1.157-.95h0l-4.2-7.29a2.357,2.357,0,0,1-.244-1.5,2.215,2.215,0,0,1-1.157-.95l-3.683-6.47c-0.03-.03-0.06-0.09-0.091-0.12s-0.03-.09-0.061-0.12a14.334,14.334,0,0,1-1.339-10.79,14.186,14.186,0,0,1,6.636-8.7l17.319-10.08,0.152-.09a14.248,14.248,0,0,1,19.359,5.33l2.131,3.74h13.82l2.13-3.74,0.061-.12h0l0.061-.06a14.347,14.347,0,0,1,8.553-6.5,14.064,14.064,0,0,1,10.806,1.44l0.122,0.06h0l0.061,0.03,17.2,9.99a14.457,14.457,0,0,1,5.265,19.49,0.227,0.227,0,0,0-.06.12c-0.031.03-.061,0.09-0.092,0.12L456.1,1982.75a2.125,2.125,0,0,1-2.922.8,2.156,2.156,0,0,1-.791-2.94l13.941-24.27-17.32-10.08a2.148,2.148,0,0,1,2.131-3.73l17.106,9.95a10.131,10.131,0,0,0,.122-5.63,9.96,9.96,0,0,0-4.474-6.04,1.18,1.18,0,0,1-.335-0.18l-16.985-9.87c-0.091-.06-0.213-0.12-0.305-0.18h0a9.989,9.989,0,0,0-13.423,3.58,3,3,0,0,1-.152.31l-2.618,4.53a2.164,2.164,0,0,1-1.948,1.23H411.87a2.15,2.15,0,0,1-1.857-1.07l-2.77-4.81a9.985,9.985,0,0,0-13.545-3.77l-0.092.09-17.35,10.05a9.983,9.983,0,0,0-4.626,6.13,9.872,9.872,0,0,0,.121,5.63l17.107-9.95a2.136,2.136,0,0,1,2.922.79,2.164,2.164,0,0,1-.791,2.94l-17.32,10.08,1.644,2.85,2.648-1.53,0.091-.06a2.115,2.115,0,0,1,2.922.77l1.4,2.45a2.147,2.147,0,0,1-.761,2.94l-2.739,1.59,2.039,3.59,2.618-1.54,0.122-.06a2.138,2.138,0,0,1,2.922.77l1.4,2.45a2.157,2.157,0,0,1-.791,2.94l-2.74,1.59,2.04,3.59,2.739-1.59h0.031a2.11,2.11,0,0,1,2.922.79l1.4,2.42a2.185,2.185,0,0,1-.791,2.94l-2.74,1.6,2.039,3.58,2.618-1.53,0.122-.06a2.121,2.121,0,0,1,2.922.76l1.4,2.46a2.149,2.149,0,0,1-.761,2.94l-2.77,1.59Zm4.383-11.88-15.219-26.23h0a8.823,8.823,0,0,1-1.066-3,8.561,8.561,0,0,1,1.553-6.31,8.382,8.382,0,0,1,5.479-3.37l31.017-8.06a19.4,19.4,0,0,1,2.039-.46,16.018,16.018,0,0,1,12.023,3,16.372,16.372,0,0,1,3.44,22.76,13.827,13.827,0,0,1-1.674,1.93l-21.52,21.91a9.857,9.857,0,0,1-5.784,3.13,9.956,9.956,0,0,1-7.335-1.84,10.24,10.24,0,0,1-2.953-3.46h0Zm-11.506-28.41h0l0.061,0.13a3.8,3.8,0,0,0,1.065,1.13,4.048,4.048,0,0,0,3.075.77h0.03a4.193,4.193,0,0,0,3.44-4.75v-0.03a4.228,4.228,0,0,0-1.644-2.73,4.159,4.159,0,0,0-3.074-.74,4,4,0,0,0-2.709,1.63,4.174,4.174,0,0,0-.761,3.12,3.5,3.5,0,0,0,.517,1.47h0Zm3.714,6.41,7.64,13.17a12.762,12.762,0,0,1,.974-1.62,10.009,10.009,0,0,1,6.483-3.95l0.183-.03a9.9,9.9,0,0,1,11.019,7.99l8.462-8.61a15.845,15.845,0,0,1-10.319-3.15,16.158,16.158,0,0,1-6.422-10.67l-0.031-.18a16.365,16.365,0,0,1,2.435-11.09l-14.458,3.77a8.411,8.411,0,0,1,2.252,4.59v0.19a8.453,8.453,0,0,1-7.092,9.47l-0.183.03c-0.3.06-.639,0.06-0.943,0.09h0Zm19.907,12.9a5.646,5.646,0,0,0-4.17-1.05v0.04a5.444,5.444,0,0,0-3.653,2.2,5.776,5.776,0,0,0-1.035,4.2v0.03a5.609,5.609,0,1,0,8.858-5.42h0Zm13.18-28.44a6.121,6.121,0,0,1,4.626,1.14,6.309,6.309,0,0,1,1.34,8.82,6.257,6.257,0,0,1-8.736,1.35,6.313,6.313,0,0,1-1.34-8.82,6.235,6.235,0,0,1,4.11-2.49h0Zm2.1,4.63a1.86,1.86,0,0,0-1.461-.37,1.9,1.9,0,0,0-1.279.77,2.021,2.021,0,0,0,.4,2.79,1.972,1.972,0,0,0,2.77-.43,2.026,2.026,0,0,0,.365-1.47,1.976,1.976,0,0,0-.791-1.29h0Zm5.875-8.06a11.886,11.886,0,0,0-16.62,2.55,11.949,11.949,0,0,0-2.161,8.91h0A11.851,11.851,0,0,0,435,1975.37h0a11.819,11.819,0,0,0,7.792-4.72,12.1,12.1,0,0,0,2.162-8.91,11.856,11.856,0,0,0-4.718-7.85h0Z" transform="translate(-366.969 -1925)"/>
</svg>
