<svg xmlns="http://www.w3.org/2000/svg" width="69" height="87.03" viewBox="0 0 69 87.03">
  <metadata><?xpacket begin="﻿" id="W5M0MpCehiHzreSzNTczkc9d"?>
<x:xmpmeta xmlns:x="adobe:ns:meta/" x:xmptk="Adobe XMP Core 5.6-c142 79.160924, 2017/07/13-01:06:39        ">
   <rdf:RDF xmlns:rdf="http://www.w3.org/1999/02/22-rdf-syntax-ns#">
      <rdf:Description rdf:about=""/>
   </rdf:RDF>
</x:xmpmeta>
                                                                                                    
                                                                                                    
                                                                                                    
                                                                                                    
                                                                                                    
                                                                                                    
                                                                                                    
                                                                                                    
                                                                                                    
                                                                                                    
                                                                                                    
                                                                                                    
                                                                                                    
                                                                                                    
                                                                                                    
                                                                                                    
                                                                                                    
                                                                                                    
                                                                                                    
                                                                                                    
                           
<?xpacket end="w"?></metadata>
<defs>
    <style>
      .cls-1 {
        fill: #003180;
        fill-rule: evenodd;
      }
    </style>
  </defs>
  <path id="Фигура_7" data-name="Фигура 7" class="cls-1" d="M751.612,2207.31l47.514,14.83a7.93,7.93,0,0,1,3.946,2.99,8.283,8.283,0,0,1,1.6,4.75v52.77a6.019,6.019,0,0,1-.288,1.84v0.03a4.841,4.841,0,0,1-1.725,2.52,4.71,4.71,0,0,1-2.9.97,5.689,5.689,0,0,1-1.7-.26l-47.539-14.83a7.928,7.928,0,0,1-3.947-2.99,8.454,8.454,0,0,1-1.568-4.75V2212.4a6.016,6.016,0,0,1,.261-1.84v-0.02a5,5,0,0,1,1.751-2.52,4.66,4.66,0,0,1,2.9-.97,5.816,5.816,0,0,1,1.7.26h0Zm2.692,57.37a1.854,1.854,0,0,1,1.072-3.55l39.987,12.5a1.862,1.862,0,0,1,1.228,2.31,1.823,1.823,0,0,1-2.3,1.2Zm0-8.66a1.84,1.84,0,1,1,1.072-3.52l39.987,12.47a1.849,1.849,0,0,1-1.072,3.54Zm0-8.64a1.849,1.849,0,0,1,1.072-3.54l39.987,12.49a1.867,1.867,0,0,1,1.228,2.31,1.836,1.836,0,0,1-2.3,1.21Zm0-8.66a1.832,1.832,0,0,1-1.228-2.31,1.812,1.812,0,0,1,2.3-1.2l39.987,12.46a1.849,1.849,0,0,1-1.072,3.54Zm0-8.63a1.849,1.849,0,0,1,1.072-3.54l39.987,12.49a1.867,1.867,0,0,1,1.228,2.31,1.823,1.823,0,0,1-2.3,1.2Zm0-8.66a1.845,1.845,0,0,1-1.228-2.31,1.825,1.825,0,0,1,2.3-1.21l39.987,12.47a1.849,1.849,0,0,1-1.072,3.54Zm5.541-16.85a1.8,1.8,0,0,1-1.2-2.28,1.822,1.822,0,0,1,2.3-1.24l47.514,14.83a7.822,7.822,0,0,1,3.947,2.99,8.289,8.289,0,0,1,1.594,4.75v52.78a1.843,1.843,0,0,1-3.685,0v-52.78a4.611,4.611,0,0,0-.889-2.6,4.135,4.135,0,0,0-2.038-1.6Zm38.209,21.1-47.539-14.83a1.673,1.673,0,0,0-.6-0.1,1.194,1.194,0,0,0-.705.21,1.149,1.149,0,0,0-.418.68,2.207,2.207,0,0,0-.105.76v52.78a4.556,4.556,0,0,0,.889,2.59,3.992,3.992,0,0,0,2.038,1.61l47.514,14.85a2.694,2.694,0,0,0,.627.08,1.17,1.17,0,0,0,.68-0.21,1.354,1.354,0,0,0,.444-0.68,2.267,2.267,0,0,0,.105-0.77v-52.77a4.586,4.586,0,0,0-.889-2.6,4.082,4.082,0,0,0-2.039-1.6h0Z" transform="translate(-745 -2200.97)"/>
</svg>
